<?xml version="1.0" encoding="utf-8"?>
<!-- Generator: Adobe Illustrator 27.7.0, SVG Export Plug-In . SVG Version: 6.00 Build 0)  -->
<svg version="1.1" id="Vrstva_1" xmlns="http://www.w3.org/2000/svg" xmlns:xlink="http://www.w3.org/1999/xlink" x="0px" y="0px"
	 viewBox="0 0 544 143.5" style="enable-background:new 0 0 544 143.5;" xml:space="preserve">
<style type="text/css">
	.st0{fill-rule:evenodd;clip-rule:evenodd;fill:#FFFFFF;}
	.st1{fill-rule:evenodd;clip-rule:evenodd;fill:#A2C62C;}
</style>
<g>
	<g>
		<path class="st0" d="M245.6,74.3c7.1,0,13.9-2.7,18.6-8.7l-6.3-6.6c-3,3.7-6.8,5.8-11.6,5.8c-7.1,0-11.8-5.1-11.8-12.4
			c0-7.3,4.6-12.4,11.6-12.4c4.2,0,8,2,10.8,5.5l6.3-6.6c-4.9-5.6-11-8.4-17.8-8.4c-13.1,0-21.5,9.6-21.5,21.9
			C223.9,65,232.5,74.3,245.6,74.3L245.6,74.3z M234.4,18.8l7.2,8.1h7.8l7.1-8.1H248l-2.7,3.3l-2.7-3.3H234.4z"/>
		<polygon class="st0" points="271.2,73.6 303.1,73.6 303.1,65.2 281.3,65.2 281.3,56.4 300.8,56.4 300.8,48.2 281.3,48.2 
			281.3,39.7 303.1,39.7 303.1,31.4 271.2,31.4 		"/>
		<polygon class="st0" points="314.2,73.5 344.9,73.5 344.9,63.9 324.6,63.9 324.6,31.3 314.2,31.3 		"/>
		<path class="st0" d="M351.9,73.5h10.8l2.7-7.4h16.8l2.7,7.4h10.7l-16.2-42.2h-11.1L351.9,73.5L351.9,73.5z M367.6,58.7l6.2-16.8
			l6.1,16.8H367.6z"/>
		<path class="st0" d="M403.4,73.5h16.9c13.2,0,21.8-8.3,21.8-21.1c0-12.8-8.6-21.1-21.8-21.1h-16.9V73.5L403.4,73.5z M413.8,64.1
			V40.7h5.4c7.9,0,12.4,4.3,12.4,11.7c0,7.4-4.5,11.7-12.4,11.7H413.8z"/>
		<polygon class="st0" points="450,73.5 459.9,73.5 459.9,48.6 478.7,73.5 487.1,73.5 487.1,31.3 477.2,31.3 477.2,56.3 458.4,31.3 
			450,31.3 		"/>
		<path class="st0" d="M494.1,73.5H505l2.7-7.4h16.8l2.7,7.4h10.7l-16.2-42.2h-11.1L494.1,73.5L494.1,73.5z M509.9,58.7l6.2-16.8
			l6.1,16.8H509.9L509.9,58.7z M511.9,26.9h7.8l6.1-8.1h-10.1L511.9,26.9z"/>
	</g>
	<g>
		<path class="st1" d="M235.1,101.4l0.7-1.5c-1.2-0.8-2.9-1.3-4.6-1.3c-3,0-5,1.5-5,3.7c0,5.2,8.2,3.2,8.2,7c0,1.4-1.3,2.3-3.4,2.3
			c-1.6,0-3.5-0.7-4.8-2l-0.7,1.4c1.4,1.3,3.4,2.2,5.6,2.2c3.1,0,5.3-1.6,5.3-4c0-5.3-8.2-3.3-8.2-7.1c0-1.2,1.2-2,3.1-2
			C232.3,100.2,233.8,100.6,235.1,101.4z"/>
		<path class="st1" d="M254.2,113.2l-3.4-5c2.1-0.7,3.3-2.3,3.3-4.7c0-3.1-2.1-4.9-5.7-4.9h-5.5v14.5h1.7v-4.6h3.9
			c0.3,0,0.6,0,0.9,0l3.1,4.7H254.2L254.2,113.2z M244.4,107v-6.9h3.9c2.6,0,4.1,1.2,4.1,3.4c0,2.3-1.5,3.5-4.1,3.5H244.4z"/>
		<path class="st1" d="M266.8,98.6H261v14.5h5.8c4.3,0,7.5-3.1,7.5-7.3C274.3,101.8,271.1,98.6,266.8,98.6L266.8,98.6z M266.9,111.6
			h-4.2v-11.5h4.2c3.3,0,5.8,2.5,5.8,5.8C272.6,109.2,270.1,111.6,266.9,111.6z"/>
		<path class="st1" d="M290.7,101.9l1-1.2c-1.4-1.3-3.3-2.1-5.3-2.1c-4.2,0-7.6,3.2-7.6,7.3c0,4.1,3.3,7.3,7.5,7.3
			c2,0,4-0.9,5.4-2.2l-1-1.1c-1.1,1.1-2.7,1.7-4.3,1.7c-3.3,0-5.9-2.6-5.9-5.8c0-3.2,2.6-5.8,5.9-5.8
			C288,100.1,289.6,100.8,290.7,101.9z"/>
		<polygon class="st1" points="297.9,98.6 297.9,113.2 308,113.2 308,111.6 299.6,111.6 299.6,106.6 306.9,106.6 306.9,105.1 
			299.6,105.1 299.6,100.2 307.8,100.2 307.8,98.6 		"/>
		<path class="st1" d="M332.1,98.6H326v14.5h6.2c3.3,0,5.2-1.5,5.2-3.9c0-2-1.2-3.4-3.3-3.7c1.7-0.4,2.7-1.6,2.7-3.3
			C336.8,100,335,98.6,332.1,98.6L332.1,98.6z M332,104.9h-4.4v-4.8h4.4c2,0,3.1,0.9,3.1,2.3C335.1,104.1,334,104.9,332,104.9
			L332,104.9z M332,111.6h-4.4v-5.2h4.4c2.4,0,3.7,0.9,3.7,2.6C335.7,110.7,334.4,111.6,332,111.6z"/>
		<polygon class="st1" points="344,98.6 344,113.2 354.1,113.2 354.1,111.6 345.7,111.6 345.7,106.6 353,106.6 353,105.1 
			345.7,105.1 345.7,100.2 353.9,100.2 353.9,98.6 		"/>
		<path class="st1" d="M368.9,101.4l0.7-1.5c-1.2-0.8-2.9-1.3-4.6-1.3c-3,0-5,1.5-5,3.7c0,5.2,8.2,3.2,8.2,7c0,1.4-1.3,2.3-3.4,2.3
			c-1.6,0-3.5-0.7-4.8-2l-0.7,1.4c1.4,1.3,3.4,2.2,5.6,2.2c3.1,0,5.3-1.6,5.3-4c0-5.3-8.2-3.3-8.2-7.1c0-1.2,1.2-2,3.1-2
			C366.1,100.2,367.6,100.6,368.9,101.4z"/>
		<polygon class="st1" points="388.5,113.2 382.2,105 388,98.6 386,98.6 378.2,107.1 378.2,98.6 376.6,98.6 376.6,113.2 
			378.2,113.2 378.2,109.4 381.1,106.3 386.4,113.2 		"/>
		<polygon class="st1" points="404.9,98.6 403.2,98.6 398.6,106.3 393.9,98.6 392.2,98.6 397.8,108.2 397.8,113.2 399.4,113.2 
			399.4,108.1 		"/>
		<path class="st1" d="M416.3,98.6h-5.9v14.5h5.8c4.3,0,7.5-3.1,7.5-7.3C423.8,101.8,420.5,98.6,416.3,98.6L416.3,98.6z
			 M416.3,111.6h-4.2v-11.5h4.2c3.3,0,5.8,2.5,5.8,5.8C422.1,109.2,419.6,111.6,416.3,111.6z"/>
	</g>
	<g>
		<path class="st1" d="M161.9,130.9c-0.3-14.5-6.6-25.3-10.7-28.7c-1.7-1.4-3.3-2.7-3.9-4.8C137.7,62,111.6,63.1,90.2,64
			c-20.7,0.9-40-11.3-22.8-23.2c-19.2,6.6-12.8,29.5,23,28c19.7-0.8,43.7-1.8,52.3,29.8c1,3.6,3.1,5.3,5.4,7.3
			c3.2,2.6,8.4,12.5,8.9,23.9l-6.4-1.4c-0.3-1.7-1.9-8-2.3-9c-0.7-1.8-1.7-3.8-2.9-5.9c-3.6-6.4-9.7-9.1-15.7-11.8
			c-7.6-3.3-19.1-8.9-20.4-21.7c-1.2,6,2,15.1,6.5,19.3c-3.4,1.4-8.5,2.2-14.1,2.6c-8.6,0.6-18.2,0.1-24.8-0.9
			c3.4-10.8,2.3-20.9-3.6-26.1c4,10.5,1.1,19.8-1.9,26.8c0,0.1-0.1,0.2-0.1,0.3c0,0.1-0.1,0.2-0.1,0.3c-2.3,5.3-4.6,15.3-4,23.1
			l-20.9,4.6c5-12.1,1.3-26.8-5.3-35.6c7.3,4.8,18.6,5.9,26,4.6c-14.9-1.7-34.5-11.4-37.9-27.5c-1.1-7-0.2-15.5,4.8-26.1
			c0.2,0.1,0.3,0.2,0.5,0.2c6.9,2.9,13,1.4,17.5-1.9c2.1-1.5,3.8-3.5,5-5.7c1.3-2.2,2-4.5,2.3-6.9c1.3-13.2-16.1-18.6-19.9-4.3
			c4.4-6.6,16-5.2,15.2,3.8c-0.2,1.6-0.7,3.3-1.7,4.9c-0.9,1.6-2.2,3.1-3.7,4.2c-3.3,2.4-7.8,3.5-12.8,1.3c-2.5-1-4.6-2.8-6-5.3
			c-1.2-2.2-1.7-5.1-1.3-8.5c0.4-2.7,1.2-5.2,2.4-7.3c2.5-4.3,6.5-7.6,11.3-9.6c4.9-2,10.4-2.7,15.8-2.1c2.3,0.3,4.6,0.9,6.8,1.7
			c-3.1,0.4-6.4,1.1-9.7,2.4c5.5-0.4,14.7-0.3,19.4,1.3c1.9,0.7,3.9,1.6,5.7,2.6c3.2,1.8,6.2,4.2,8.9,7.3c-0.1,1.2-0.6,2.4-1.2,3.4
			c0,0,0,0,0,0c-0.7,1.2-1.5,2.2-2.2,3c-4.7,2.1-14.6,3.7-25,10.2c9-2.7,22-5.1,27.5-6c0.1-0.1,0.3-0.1,0.4-0.2
			c0.1-0.1,0.2-0.2,0.3-0.3c0.9-1,2.1-2.4,3.1-4.2c0,0,0,0,0,0c1.1-1.9,1.9-4.2,1.9-6.7c0-0.3,0-0.5,0-0.8c-0.2-0.2-0.3-0.4-0.5-0.6
			c-3.3-4-6.9-7-10.9-9.2c-3.8-2.1-7.8-3.6-12-4.7c-3.7-2.1-7.8-3.3-11.9-3.9c-6.2-0.8-12.6,0-18.3,2.4c-5.7,2.4-10.6,6.3-13.6,11.6
			c-1.5,2.7-2.6,5.7-3,9.1c-0.6,4.5,0.2,8.2,1.8,11.3c1,1.8,2.3,3.4,3.7,4.7c-13,27.4-2.6,41.4,6.5,53.6c6.5,8.8,10.4,23.2,3.9,35.1
			l-36.6,8.1l98.5-16l98.5,16.1L161.9,130.9z M120.2,102.5c2.4,1.4,5,2.6,7.6,3.7c5.3,2.3,10.6,4.7,13.5,9.7c1.1,1.9,2,3.7,2.6,5.2
			c0.1,0.2,1.1,4.3,1.5,6.1l-24-5.3c5.8-6.6-0.3-14.4-5.5-17.5C117.5,103.9,119,103.2,120.2,102.5z M72,124.4
			c-0.2-6.1,1.3-14.7,3.1-18.8c6.9,1.2,17.6,1.8,27.1,1.2c2.4-0.2,4.6-0.5,7-0.8c0.5,0.3,0.3,0.2,1.5,0.9c4.9,3,11.3,8.7,4.8,13.8
			l-13.2-2.9L72,124.4z"/>
		<polygon class="st1" points="108.9,47.7 108.9,47.7 108.9,47.7 		"/>
		<path class="st1" d="M151.9,57.4l-2.9,5.8c-0.3,0.6-0.4,1.2-0.4,1.9c0,0.7,0.2,1.3,0.5,1.9c0.3,0.6,0.8,1.1,1.3,1.4
			c0.6,0.3,1.2,0.6,1.9,0.6l6.6,0.5l3.6,5.4c0.4,0.6,0.9,1,1.4,1.3c0.6,0.3,1.2,0.5,1.9,0.5c0.7,0,1.3-0.2,1.9-0.5
			c0.6-0.3,1.1-0.7,1.5-1.3l3.7-5.5l6.5-0.4c0.7,0,1.3-0.2,1.9-0.6c0.6-0.3,1-0.8,1.4-1.4c0.3-0.6,0.5-1.2,0.5-1.9
			c0-0.6-0.1-1.3-0.4-1.9l-2.9-6l2.9-5.8c0.3-0.6,0.4-1.2,0.4-1.9c0-0.7-0.2-1.3-0.5-1.9c-0.3-0.6-0.8-1.1-1.3-1.4
			c-0.6-0.3-1.2-0.6-1.9-0.6l-6.6-0.5l-3.6-5.4l0,0c-0.4-0.6-0.9-1-1.4-1.3c-0.6-0.3-1.2-0.5-1.9-0.5c-0.7,0-1.3,0.2-1.9,0.5
			c-0.6,0.3-1.1,0.7-1.5,1.3l-3.7,5.5l-6.5,0.4c-0.7,0-1.3,0.2-1.9,0.6c-0.6,0.3-1,0.8-1.4,1.4c-0.3,0.6-0.5,1.2-0.5,1.9
			c0,0.6,0.1,1.3,0.4,1.9L151.9,57.4z M165.7,42.1L165.7,42.1L165.7,42.1L165.7,42.1z M159.1,49.4c0.6,0,1.2-0.2,1.7-0.5
			c0.5-0.3,1-0.7,1.3-1.2h0l3.6-5.4l3.5,5.3c0.3,0.5,0.8,0.9,1.3,1.2c0.5,0.3,1.1,0.5,1.7,0.5l6.5,0.5l-2.8,5.7
			c-0.3,0.6-0.4,1.2-0.4,1.8c0,0.6,0.1,1.2,0.4,1.8l2.8,5.8l-6.3,0.4c-0.6,0-1.2,0.2-1.7,0.5c-0.5,0.3-1,0.7-1.3,1.2h0l-3.6,5.4
			l-3.5-5.3c-0.3-0.5-0.8-0.9-1.3-1.2c-0.5-0.3-1.1-0.5-1.7-0.5l-6.5-0.5l2.8-5.7c0.3-0.6,0.4-1.2,0.4-1.8c0-0.6-0.1-1.2-0.4-1.8
			l-2.8-5.8L159.1,49.4z"/>
		<path class="st1" d="M112.2,29.7l-2.9,5.8c-0.3,0.6-0.4,1.2-0.4,1.9c0,0.7,0.2,1.3,0.5,1.9c0.3,0.6,0.8,1.1,1.3,1.4
			c0.6,0.3,1.2,0.6,1.9,0.6l6.6,0.5l3.6,5.4c0.4,0.6,0.9,1,1.4,1.3c0.6,0.3,1.2,0.5,1.9,0.5c0.7,0,1.3-0.2,1.9-0.5
			c0.6-0.3,1.1-0.7,1.5-1.3l3.7-5.5l6.5-0.4c0.7,0,1.3-0.2,1.9-0.6c0.6-0.3,1-0.8,1.4-1.4c0.3-0.6,0.5-1.2,0.5-1.9
			c0-0.6-0.1-1.3-0.4-1.9l-2.9-6l2.9-5.8c0.3-0.6,0.4-1.2,0.4-1.9c0-0.7-0.2-1.3-0.5-1.9c-0.3-0.6-0.8-1.1-1.3-1.4
			c-0.6-0.3-1.2-0.6-1.9-0.6l-6.6-0.5l-3.6-5.4l0,0c-0.4-0.6-0.9-1-1.4-1.3c-0.6-0.3-1.2-0.5-1.9-0.5c-0.7,0-1.3,0.2-1.9,0.5
			c-0.6,0.3-1.1,0.7-1.5,1.3l-3.7,5.5l-6.5,0.4c-0.7,0-1.3,0.2-1.9,0.6c-0.6,0.3-1,0.8-1.4,1.4c-0.3,0.6-0.5,1.2-0.5,1.9
			c0,0.6,0.1,1.3,0.4,1.9L112.2,29.7z M126,14.3L126,14.3L126,14.3L126,14.3z M119.4,21.6c0.6,0,1.2-0.2,1.7-0.5
			c0.5-0.3,1-0.7,1.3-1.2h0l3.6-5.4l3.5,5.3c0.4,0.5,0.8,0.9,1.3,1.2c0.5,0.3,1.1,0.5,1.7,0.5l6.5,0.5l-2.8,5.7
			c-0.3,0.6-0.4,1.2-0.4,1.8c0,0.6,0.1,1.2,0.4,1.8l2.8,5.8l-6.3,0.4c-0.6,0-1.2,0.2-1.7,0.5c-0.5,0.3-1,0.7-1.3,1.2h0l-3.6,5.4
			l-3.5-5.3c-0.3-0.5-0.8-0.9-1.3-1.2c-0.5-0.3-1.1-0.5-1.7-0.5l-6.5-0.5l2.8-5.7c0.3-0.6,0.4-1.2,0.4-1.8c0-0.6-0.1-1.2-0.4-1.8
			l-2.8-5.8L119.4,21.6z"/>
	</g>
</g>
</svg>
