<!--?xml version="1.0" encoding="UTF-8"?-->
<svg preserveAspectRatio="xMidYMid meet" data-bbox="8 6.8 161.1 57.3" viewBox="8 6.8 161.1 57.3" xmlns="http://www.w3.org/2000/svg" data-type="color" role="presentation" aria-hidden="true">
    <g>
        <path d="M30 21.7h3c.2 0 .4-.2.4-.4s-.2-.4-.4-.4h-3c-.2 0-.4.2-.4.4 0 .3.2.4.4.4zm1.5 26.4c-.9 0-1.6.7-1.6 1.6 0 .9.7 1.6 1.6 1.6.9 0 1.6-.7 1.6-1.6 0-.9-.7-1.6-1.6-1.6zm-7.7-1.3h15.4V24H23.8v22.8zm49.3-7.5c-.7 0-1.4.2-2 .7-.6.5-1 1.1-1.2 1.9-.1.4-.1.7-.1.9V45c0 1 .3 1.8.9 2.5.6.7 1.4 1 2.3 1 1.1 0 2-.4 2.6-1.3.6-.9.9-2 .9-3.4 0-1.3-.3-2.4-.9-3.2-.6-.8-1.4-1.3-2.5-1.3zm53.9-.2c-1.2 0-2.1.5-2.7 1.6-.5.9-.8 1.9-.8 3.2 0 1.2.3 2.3.8 3.1.6 1.1 1.5 1.6 2.7 1.6 1.1 0 2-.5 2.6-1.6.6-.9.8-1.9.8-3.2 0-1.2-.3-2.3-.8-3.1-.5-1-1.4-1.6-2.6-1.6zm-39.3.2c-.7 0-1.4.2-2 .7-.6.5-1 1.1-1.2 1.9-.1.4-.1.7-.1.9V45c0 1 .3 1.8.9 2.5.6.7 1.4 1 2.3 1 1.1 0 2-.4 2.6-1.3.6-.9.9-2 .9-3.4 0-1.3-.3-2.4-.9-3.2-.5-.8-1.4-1.3-2.5-1.3zm-30.5-4.7c-.2.8-.5 1.9-.9 3.5l-1.5 4.8h5L58.1 38c-.2-.5-.5-1.6-.9-3.4zm92.2 4.4c-1 0-1.7.4-2.4 1.2-.5.6-.8 1.4-.9 2.3h6.2c0-.9-.2-1.6-.6-2.3-.4-.8-1.2-1.2-2.3-1.2zM70.2 25.9v-1.3c-1.2 0-2.4.2-2.4 1.3 0 .7.4 1 1 1 .7-.1 1.2-.5 1.4-1zm-16.1-4.3c-.2-.6-.3-1.2-.5-1.8-.1.5-.3 1.2-.5 1.8l-.7 2.3h2.4l-.7-2.3zm98.1-.7c2.2 0 3 1.8 3 3.3 0 .3 0 .6-.1.7h-4.6c0 1.2 1 1.8 2.1 1.8.8 0 1.4-.1 1.9-.3l.3 1.2c-.6.3-1.4.4-2.4.4-2.2 0-3.5-1.4-3.5-3.5-.1-1.8 1.1-3.6 3.3-3.6zm-27.5.1.1 1c.3-.5 1.1-1.2 2.2-1.2 1.2 0 2.4.8 2.4 2.9v4.1h-1.7V24c0-1-.4-1.7-1.3-1.7-.7 0-1.2.5-1.4 1-.1.1-.1.4-.1.5v4h-1.7V23c0-.8 0-1.4-.1-2h1.6zm-18.2-.1c2.2 0 3 1.8 3 3.3 0 .3 0 .6-.1.7h-4.6c0 1.2 1 1.8 2.1 1.8.8 0 1.4-.1 1.9-.3l.3 1.2c-.6.3-1.4.4-2.4.4-2.2 0-3.5-1.4-3.5-3.5 0-1.8 1.1-3.6 3.3-3.6zm-7.1-3h1.7v10h-1.7v-10zm-13.7 4.2c-.7 0-1.4.2-1.8.5l-.3-1.1c.5-.3 1.4-.6 2.5-.6 2.2 0 2.8 1.4 2.8 2.9v2.5c0 .6 0 1.2.1 1.6h-1.6l-.1-.8c-.4.5-1.1.9-2 .9-1.4 0-2.2-1-2.2-2 0-1.7 1.5-2.6 4.1-2.6v-.1c-.1-.5-.3-1.2-1.5-1.2zm-10.2-3.9c.6 0 1 .4 1 .9s-.4.9-1 .9-1-.4-1-.9.4-.9 1-.9zm.8 2.8v6.9h-1.7V21h1.7zm-23.8-2.6h2.2l3.1 9.5H56l-.9-2.7h-3l-.8 2.7h-1.8l3-9.5zM41 49.8c0 1.7-1.4 3-3 3H25c-1.7 0-3-1.4-3-3V21c0-1.7 1.4-3 3-3h13c1.7 0 3 1.4 3 3v28.8zm20.9.7-1.7-5.4h-6l-1.6 5.4h-3.1l5.9-18.4h3.7l6 18.4h-3.2zm.7-22.6h-1.7L58.3 21h1.9l1.1 3.5c.2.6.3 1.2.5 1.7.1-.6.3-1.1.5-1.7l1.1-3.5h1.8l-2.6 6.9zm3.5-1.9c0-1.7 1.5-2.6 4.1-2.6v-.1c0-.4-.2-1.2-1.4-1.2-.7 0-1.4.2-1.8.5l-.3-1.1c.5-.3 1.4-.6 2.5-.6 2.2 0 2.8 1.4 2.8 2.9v2.5c0 .6 0 1.2.1 1.6h-1.6l-.1-.8c-.4.5-1.1.9-2 .9-1.5 0-2.3-1-2.3-2zm11.6 23.1c-1.1 1.2-2.5 1.7-4.1 1.7-1.8 0-3-.6-3.8-1.9v7h-3V41.6c0-1.4 0-2.9-.1-4.4h2.6l.2 2.1h.1c1-1.6 2.5-2.4 4.5-2.4 1.6 0 2.9.6 3.9 1.9 1 1.2 1.6 2.9 1.6 4.9 0 2.3-.6 4.1-1.9 5.4zm3.1-21.2h-1.7v-10h1.7v10zm11.5 21.2c-1.1 1.2-2.5 1.7-4.1 1.7-1.8 0-3-.6-3.8-1.9v7h-3V41.6c0-1.4 0-2.9-.1-4.4H84l.2 2.1h.1c1-1.6 2.5-2.4 4.5-2.4 1.6 0 2.9.6 3.9 1.9 1.1 1.2 1.6 2.9 1.6 4.9-.1 2.3-.7 4.1-2 5.4zM94.4 28c-.9 0-1.7-.3-2.2-1.2l-.1 1h-1.5c0-.5.1-1.2.1-1.9v-8.1h1.7V22c.4-.7 1.2-1.1 2.2-1.1 1.7 0 2.9 1.4 2.9 3.5 0 2.4-1.6 3.6-3.1 3.6zm14.8 21.2c-1.2 1.1-2.9 1.6-5 1.6-2 0-3.6-.4-4.8-1.1l.7-2.5c1.3.8 2.7 1.1 4.3 1.1 1.1 0 2-.3 2.6-.8.6-.5.9-1.2.9-2 0-.7-.3-1.4-.8-1.9s-1.4-1-2.5-1.4c-3.2-1.2-4.8-3-4.8-5.3 0-1.5.6-2.8 1.7-3.7 1.1-1 2.7-1.4 4.5-1.4 1.7 0 3.1.3 4.2.9l-.7 2.4c-1-.6-2.2-.8-3.5-.8-1 0-1.9.3-2.4.8s-.7 1-.7 1.7.3 1.3.8 1.8c.5.4 1.4.9 2.7 1.4 1.6.6 2.8 1.4 3.5 2.2.7.9 1.1 1.9 1.1 3.2-.1 1.5-.7 2.8-1.8 3.8zm10.5-9.7h-3.3V46c0 1.6.6 2.5 1.7 2.5.5 0 1 0 1.3-.1l.1 2.2c-.6.2-1.3.3-2.3.3-1.2 0-2.1-.4-2.7-1.1-.7-.7-1-1.9-1-3.6v-6.7h-1.9v-2.2h1.9v-2.4l2.9-.9v3.3h3.3v2.2zM118 28c-1.9 0-3.4-1.3-3.4-3.5 0-2.3 1.5-3.6 3.5-3.6s3.4 1.4 3.4 3.5c0 2.5-1.8 3.6-3.5 3.6zm13.8 20.8c-1.2 1.3-2.9 2-4.9 2-2 0-3.5-.6-4.7-1.9-1.2-1.3-1.7-2.9-1.7-4.9 0-2.1.6-3.8 1.8-5.1 1.2-1.3 2.8-2 4.8-2s3.5.6 4.7 1.9c1.1 1.3 1.7 2.9 1.7 4.9 0 2.1-.5 3.8-1.7 5.1zm3-27.8h1v-1.3l1.7-.5V21h1.6v1.3h-1.6v3c0 .8.2 1.3.9 1.3.3 0 .5 0 .7-.1v1.3c-.3.1-.7.2-1.3.2-.6 0-1.2-.2-1.5-.6-.4-.4-.5-1-.5-1.9v-3.2h-1V21zm7.6 18.8c-.3-.1-.6-.1-.9-.1-1 0-1.8.4-2.4 1.2-.5.7-.7 1.6-.7 2.6v7h-3v-9.1c0-1.5 0-2.9-.1-4.2h2.6l.1 2.5h.1c.3-.9.8-1.6 1.5-2.1s1.4-.7 2.1-.7h.7v2.9zm.5-16v4.1h-1.7v-10h1.7V22c.2-.3.5-.6.9-.8.4-.2.8-.3 1.2-.3 1.2 0 2.4.8 2.4 3v4h-1.7V24c0-1-.4-1.7-1.3-1.7-.7 0-1.2.5-1.4 1-.1.1-.1.3-.1.5zm12.2 20.8h-8.9c0 1.3.5 2.3 1.3 3 .7.6 1.7.9 2.9.9 1.3 0 2.5-.2 3.6-.6l.5 2.1c-1.3.6-2.7.8-4.5.8-2.1 0-3.7-.6-4.9-1.8-1.2-1.2-1.8-2.8-1.8-4.9 0-2 .6-3.7 1.6-5 1.2-1.4 2.7-2.1 4.7-2.1 1.9 0 3.4.7 4.4 2.1.8 1.1 1.2 2.5 1.2 4.2 0 .5 0 .9-.1 1.3zM94 22.2c-.7 0-1.4.5-1.5 1.3 0 .1-.1.3-.1.5v1.5c.2.7.8 1.2 1.5 1.2 1.1 0 1.7-.9 1.7-2.3.1-1.2-.5-2.2-1.6-2.2zm12.4-.1c-1.1 0-1.5 1-1.6 1.7h3c.1-.7-.2-1.7-1.4-1.7zm11.7 0c-1.2 0-1.7 1.2-1.7 2.3 0 1.3.7 2.3 1.7 2.3s1.7-1 1.7-2.3c-.1-1-.5-2.3-1.7-2.3zm-33.3 3.7c0 .7.4 1 1 1 .7 0 1.2-.5 1.4-.9v-1.3c-1.3-.1-2.4.2-2.4 1.2zm67.3-3.7c-1.1 0-1.5 1-1.6 1.7h3c0-.7-.3-1.7-1.4-1.7z" fill="#575756" data-color="1"></path>
        <path d="M161.4 64.1H15.7c-4.3 0-7.7-3.5-7.7-7.7V14.5c0-4.3 3.5-7.7 7.7-7.7h145.7c4.3 0 7.7 3.5 7.7 7.7v41.9c0 4.2-3.4 7.7-7.7 7.7zM15.7 8.7c-3.2 0-5.7 2.6-5.7 5.7v41.9c0 3.2 2.6 5.7 5.7 5.7h145.7c3.2 0 5.7-2.6 5.7-5.7V14.5c0-3.2-2.6-5.7-5.7-5.7H15.7z" fill="#575756" data-color="1"></path>
    </g>
</svg>
