<svg preserveAspectRatio="xMidYMid meet" data-bbox="16.378 16.378 167.244 167.244" viewBox="16.378 16.378 167.244 167.244" height="200" width="200" xmlns="http://www.w3.org/2000/svg" data-type="color" role="presentation" aria-hidden="true">
    <g>
        <path d="M100 16.378c-46.183 0-83.622 37.438-83.622 83.622 0 46.183 37.439 83.622 83.622 83.622 46.184 0 83.622-37.439 83.622-83.622 0-46.184-37.438-83.622-83.622-83.622zM77.228 94.654a4.955 4.955 0 0 1 7.009 0l8.328 8.328v-36.42a7.435 7.435 0 1 1 14.87 0v36.421l8.329-8.329a4.955 4.955 0 0 1 7.009 0 4.955 4.955 0 0 1 0 7.009l-19.265 19.265-.003.003a4.94 4.94 0 0 1-3.505 1.452 4.942 4.942 0 0 1-3.504-1.451l-19.268-19.267a4.958 4.958 0 0 1 0-7.011zm56.616 42.181c0 2.78-2.275 5.054-5.054 5.054H71.21c-2.78 0-5.054-2.275-5.054-5.054v-1.989c0-2.78 2.275-5.054 5.054-5.054h57.58c2.78 0 5.054 2.275 5.054 5.054v1.989z" fill="#A9BF04" data-color="1"></path>
    </g>
</svg>
