<!--?xml version="1.0" encoding="UTF-8"?-->
<svg preserveAspectRatio="xMidYMid meet" data-bbox="8 6.6 171 57.3" viewBox="8 6.6 171 57.3" xmlns="http://www.w3.org/2000/svg" data-type="color" role="presentation" aria-hidden="true">
    <g>
        <path d="M170.5 63.9h-154c-4.7 0-8.5-3.8-8.5-8.5V15.1c0-4.7 3.8-8.5 8.5-8.5h154c4.7 0 8.5 3.8 8.5 8.5v40.3c0 4.7-3.8 8.5-8.5 8.5zM16.6 8.6c-3.6 0-6.5 2.9-6.5 6.5v40.3c0 3.6 2.9 6.5 6.5 6.5h154c3.6 0 6.5-2.9 6.5-6.5V15.1c0-3.6-2.9-6.5-6.5-6.5h-154z" fill="#575756" data-color="1"></path>
        <path d="M64.9 23.4h-1.1c0-.2-.1-.6-.3-1.3h-1.6c-.2.7-.3 1.2-.3 1.3h-1.1c0-.1.3-.8.8-2.3.6-1.4.8-2.2.8-2.3h1.3c0 .1.3.9.8 2.3.4 1.4.7 2.1.7 2.3zm-1.7-2c-.4-1.2-.6-1.9-.6-2h-.1c0 .1-.2.8-.6 2h1.3z" fill="#5f5a5d" data-color="2"></path>
        <path d="M69.5 23.4h-.9c0-.1-.3-.6-1-1.5-.7-1-1.1-1.6-1.2-2h-.1c.1.5.1 1 .1 1.4v2.1h-.9c0-.7.1-1.5.1-2.4 0-.9 0-1.6-.1-2.2h1.1c0 .1.3.6.9 1.5.6.9 1 1.6 1.1 1.9h.1c-.1-.5-.1-1-.1-1.4v-2h.9V21c-.1.8-.1 1.6 0 2.4z" fill="#5f5a5d" data-color="2"></path>
        <path d="M74.6 20.9c0 .7-.2 1.3-.6 1.8-.4.5-1 .8-1.8.8h-1.4v-4.6h1.5c.9 0 1.5.2 1.9.6.2.3.4.8.4 1.4zm-1 .1c0-.5-.1-.8-.4-1.1-.3-.3-.7-.5-1.2-.5h-.4v3.2h.5c.5 0 .9-.2 1.1-.5.3-.2.4-.6.4-1.1z" fill="#5f5a5d" data-color="2"></path>
        <path d="M79.3 23.4h-1.1c-.3-.8-.5-1.4-.6-1.6-.1-.2-.4-.3-.7-.3h-.4v1.8h-1v-4.6h1.6c1.1 0 1.6.4 1.6 1.1 0 .6-.3 1-.9 1.2v.1c.2.1.4.3.6.6.4.3.6.8.9 1.7zM78 20.1c0-.5-.3-.7-.9-.7h-.6v1.4h.3c.8.1 1.2-.2 1.2-.7z" fill="#5f5a5d" data-color="2"></path>
        <path d="M84.4 21c0 .7-.2 1.3-.7 1.8-.4.5-1 .7-1.6.7-.6 0-1.1-.2-1.6-.7-.4-.4-.6-1-.6-1.7s.2-1.3.7-1.8c.4-.5 1-.7 1.6-.7.6 0 1.1.2 1.6.7.4.4.6 1 .6 1.7zm-1 .1c0-.5-.1-.9-.4-1.2-.3-.3-.6-.5-.9-.5-.3 0-.6.2-.9.5-.2.3-.4.7-.4 1.2s.1.9.4 1.2c.3.3.6.5.9.5.3 0 .6-.2.9-.5.3-.4.4-.8.4-1.2z" fill="#5f5a5d" data-color="2"></path>
        <path d="M86.4 23.4h-1v-4.6h1v4.6z" fill="#5f5a5d" data-color="2"></path>
        <path d="M91.6 20.9c0 .7-.2 1.3-.6 1.8-.4.5-1 .8-1.8.8h-1.4v-4.6h1.5c.9 0 1.5.2 1.9.6.2.3.4.8.4 1.4zm-1 .1c0-.5-.1-.8-.4-1.1-.3-.3-.7-.5-1.2-.5h-.4v3.2h.5c.5 0 .9-.2 1.1-.5.3-.2.4-.6.4-1.1z" fill="#5f5a5d" data-color="2"></path>
        <path d="M98.4 23.4h-1.1c0-.2-.1-.6-.3-1.3h-1.6c-.2.7-.3 1.2-.3 1.3H94c0-.1.3-.8.8-2.3.6-1.4.8-2.2.8-2.3h1.3c0 .1.3.9.8 2.3.4 1.4.7 2.1.7 2.3zm-1.6-2c-.4-1.2-.6-1.9-.6-2h-.1c0 .1-.2.8-.6 2h1.3z" fill="#5f5a5d" data-color="2"></path>
        <path d="M102.5 19.9c0 .6-.2 1-.6 1.3-.4.3-.9.4-1.5.4h-.2v1.8h-1v-4.6h1.7c.4 0 .8.1 1.1.3.4.1.5.4.5.8zm-.9.2c0-.5-.3-.8-1-.8-.2 0-.3 0-.5.1v1.5h.2c.9.1 1.3-.2 1.3-.8z" fill="#5f5a5d" data-color="2"></path>
        <path d="M106.8 19.9c0 .6-.2 1-.6 1.3-.4.3-.9.4-1.5.4h-.2v1.8h-1v-4.6h1.7c.4 0 .8.1 1.1.3.3.1.5.4.5.8zm-.9.2c0-.5-.3-.8-1-.8-.2 0-.3 0-.5.1v1.5h.2c.8.1 1.3-.2 1.3-.8z" fill="#5f5a5d" data-color="2"></path>
        <path d="M113.7 21c0 .7-.2 1.3-.7 1.8-.4.5-1 .7-1.6.7-.6 0-1.1-.2-1.6-.7-.4-.4-.6-1-.6-1.7s.2-1.3.7-1.8c.4-.5 1-.7 1.6-.7.6 0 1.1.2 1.6.7.4.4.6 1 .6 1.7zm-.9.1c0-.5-.1-.9-.4-1.2-.3-.3-.6-.5-.9-.5-.3 0-.6.2-.9.5-.2.3-.4.7-.4 1.2s.1.9.4 1.2c.3.3.6.5.9.5.3 0 .6-.2.9-.5.2-.4.4-.8.4-1.2z" fill="#5f5a5d" data-color="2"></path>
        <path d="M118.6 23.4h-.9c0-.1-.3-.6-1-1.5-.7-1-1.1-1.6-1.2-2h-.1c.1.5.1 1 .1 1.4v2.1h-.9c0-.7.1-1.5.1-2.4 0-.9 0-1.6-.1-2.2h1.1c0 .1.3.6.9 1.5.6.9 1 1.6 1.1 1.9h.1c-.1-.5-.1-1-.1-1.4v-2h.9V21c-.1.8-.1 1.6 0 2.4z" fill="#5f5a5d" data-color="2"></path>
        <path d="M76.7 38.2c0 2.3-.7 4.1-2 5.5-1.5 1.6-3.6 2.4-6 2.4s-4.4-.8-6-2.5c-1.7-1.6-2.5-3.7-2.5-6.1 0-2.4.8-4.5 2.5-6.1 1.7-1.6 3.7-2.5 6-2.5 1.2 0 2.3.2 3.4.7 1.1.5 1.9 1.1 2.6 1.8l-1.4 1.4c-1.1-1.3-2.6-1.9-4.5-1.9-1.7 0-3.2.6-4.5 1.8-1.3 1.2-1.9 2.8-1.9 4.7 0 1.9.6 3.5 1.9 4.7 1.3 1.2 2.8 1.8 4.5 1.8 1.8 0 3.4-.6 4.6-1.8.8-.8 1.3-1.9 1.4-3.3h-6v-2h8c-.1.5-.1 1-.1 1.4z" fill="#5f5a5d" data-color="2"></path>
        <path d="M79.2 35.8c1.1-1.1 2.5-1.7 4.1-1.7 1.7 0 3.1.6 4.1 1.7 1.1 1.1 1.6 2.6 1.6 4.3 0 1.7-.5 3.1-1.6 4.3-1.1 1.1-2.5 1.7-4.1 1.7-1.7 0-3.1-.6-4.1-1.7-1.1-1.1-1.6-2.6-1.6-4.3 0-1.7.5-3.2 1.6-4.3zm1.6 7.2c.7.7 1.6 1.1 2.6 1.1s1.9-.4 2.6-1.1c.7-.7 1.1-1.7 1.1-2.9s-.4-2.2-1.1-2.9c-.7-.7-1.6-1.1-2.6-1.1s-1.9.4-2.6 1.1c-.7.7-1.1 1.7-1.1 2.9s.3 2.2 1.1 2.9z" fill="#5f5a5d" data-color="2"></path>
        <path d="M91.5 35.8c1.1-1.1 2.5-1.7 4.1-1.7 1.7 0 3.1.6 4.1 1.7 1.1 1.1 1.6 2.6 1.6 4.3 0 1.7-.5 3.1-1.6 4.3-1.1 1.1-2.5 1.7-4.1 1.7-1.7 0-3.1-.6-4.1-1.7-1.1-1.1-1.6-2.6-1.6-4.3-.1-1.7.5-3.2 1.6-4.3zM93 43c.7.7 1.6 1.1 2.6 1.1s1.9-.4 2.6-1.1c.7-.7 1.1-1.7 1.1-2.9s-.4-2.2-1.1-2.9c-.7-.7-1.6-1.1-2.6-1.1s-1.9.4-2.6 1.1c-.7.7-1.1 1.7-1.1 2.9s.4 2.2 1.1 2.9z" fill="#5f5a5d" data-color="2"></path>
        <path d="M107.6 51c-1.3 0-2.4-.3-3.3-1-.8-.7-1.4-1.4-1.8-2.3l1.9-.8c.2.6.6 1.1 1.2 1.5.6.4 1.2.6 2 .6 1.2 0 2.1-.3 2.7-1 .7-.7 1-1.6 1-2.8v-1.1h-.1c-.4.5-.9 1-1.6 1.4-.7.4-1.4.6-2.3.6-1.5 0-2.7-.6-3.8-1.7-1.1-1.1-1.6-2.6-1.6-4.3s.5-3.1 1.6-4.3c1.1-1.1 2.3-1.7 3.8-1.7.8 0 1.6.2 2.3.5.7.4 1.2.8 1.6 1.4h.1v-1.6h2v10.7c0 1.9-.6 3.4-1.7 4.4-1 1-2.4 1.5-4 1.5zm.2-6.9c1 0 1.8-.4 2.5-1.1.7-.7 1-1.7 1-3 0-1.2-.3-2.2-1-3-.7-.7-1.5-1.1-2.5-1.1s-1.8.4-2.5 1.1c-.7.7-1.1 1.7-1.1 2.9s.4 2.2 1.1 2.9c.7 1 1.5 1.3 2.5 1.3z" fill="#5f5a5d" data-color="2"></path>
        <path d="M117.5 45.7h-2.1V29.3h2.1v16.4z" fill="#5f5a5d" data-color="2"></path>
        <path d="M124.5 46.1c-1.7 0-3.1-.6-4.1-1.7-1.1-1.1-1.6-2.6-1.6-4.3 0-1.6.5-3 1.5-4.2 1-1.2 2.3-1.8 4-1.8 1.7 0 3 .5 4 1.6s1.5 2.5 1.5 4.4v.4h-8.9c.1 1.1.4 2 1.1 2.7.7.7 1.5 1 2.4 1 1.5 0 2.5-.6 3.1-1.9l1.9.8c-.4.9-1 1.6-1.8 2.2-.9.5-1.9.8-3.1.8zm3-7.4c0-.6-.3-1.3-.9-1.8-.5-.6-1.3-.9-2.4-.9-.8 0-1.5.2-2 .7-.6.5-1 1.1-1.2 2h6.5z" fill="#5f5a5d" data-color="2"></path>
        <path d="M138 45.7h-2.1V29.3h5.6c1.4 0 2.6.5 3.6 1.4 1 .9 1.5 2.1 1.5 3.5s-.5 2.6-1.5 3.5c-1 .9-2.2 1.4-3.6 1.4H138v6.6zm0-8.7h3.5c.9 0 1.6-.3 2.1-.9.5-.6.8-1.3.8-2s-.3-1.4-.8-2c-.5-.6-1.2-.9-2.1-.9H138V37z" fill="#5f5a5d" data-color="2"></path>
        <path d="M150.1 45.7H148V29.3h2.1v16.4z" fill="#5f5a5d" data-color="2"></path>
        <path d="M155.6 46.1c-1.2 0-2.2-.3-3-1-.8-.7-1.2-1.6-1.2-2.7 0-1.2.5-2.2 1.4-2.9.9-.7 2.1-1 3.5-1 1.2 0 2.3.2 3 .7v-.3c0-.8-.3-1.5-.8-2-.6-.5-1.3-.7-2.1-.7-.6 0-1.2.1-1.7.4-.5.3-.8.7-1 1.2l-1.9-.8c.3-.7.8-1.3 1.5-1.9.8-.6 1.8-.9 3-.9 1.4 0 2.6.4 3.6 1.3.9.8 1.4 2 1.4 3.6v6.8h-2v-1.6h-.1c-.8 1.1-2 1.8-3.6 1.8zm.3-2c.9 0 1.7-.3 2.4-1 .7-.6 1.1-1.4 1.1-2.3-.6-.5-1.5-.7-2.7-.7-1 0-1.8.2-2.3.7-.5.4-.8 1-.8 1.6 0 .5.2 1 .7 1.3.5.3 1 .4 1.6.4z" fill="#5f5a5d" data-color="2"></path>
        <path d="M165.9 50.6h-2.2l2.6-5.7-4.6-10.5h2.3l3.3 8.1 3.3-8.1h2.3l-7 16.2z" fill="#5f5a5d" data-color="2"></path>
        <path d="M20.8 37.2V21.5c0-.6.1-1.2.6-1.7.2-.2.3-.2.5 0 3.5 3.6 7.1 7.2 10.6 10.8 2.3 2.3 4.6 4.7 6.9 7 .2.2.2.3 0 .6L22.6 55c-.3.3-.6.3-.9.1-.6-.5-.8-1.1-.8-1.8V44c-.1-2.4-.1-4.6-.1-6.8z" fill="#575756" data-color="1"></path>
        <path d="M22.8 19.2c.4 0 .7.1 1 .3 7.2 4 14.4 8 21.5 12.1.3.2.3.3.1.5l-4.8 4.8c-.2.2-.3.3-.5 0C34.4 31 28.7 25.2 23 19.4l-.2-.2z" fill="#575756" data-color="1"></path>
        <path d="M24.4 54.7c5.2-5.3 10.4-10.5 15.6-15.8.3-.3.5-.3.8 0 1.3 1.4 2.7 2.7 4 4.1.2.2.3.3-.1.5-6.7 3.7-13.4 7.3-20.1 11 0 .1-.2.2-.2.2z" fill="#575756" data-color="1"></path>
        <path d="M54.2 37.4c0 .6-.3 1-.7 1.3-.3.2-.7.4-1 .6-2 1.1-4.1 2.2-6.1 3.4-.3.2-.4.1-.7-.1-1.4-1.5-2.9-3-4.3-4.4-.2-.2-.2-.3 0-.5 1.7-1.7 3.4-3.4 5.1-5 .2-.2.3-.2.6-.1 2 1.1 4 2.2 6 3.4.6.2 1 .6 1.1 1.4z" fill="#575756" data-color="1"></path>
    </g>
</svg>
