<?xml version="1.0" encoding="UTF-8"?>
<!DOCTYPE svg PUBLIC "-//W3C//DTD SVG 1.1//EN" "http://www.w3.org/Graphics/SVG/1.1/DTD/svg11.dtd">
<!-- Creator: CorelDRAW 2020 (64-Bit) -->
<svg xmlns="http://www.w3.org/2000/svg" xml:space="preserve" width="6.35mm" height="6.35mm" version="1.1" style="shape-rendering:geometricPrecision; text-rendering:geometricPrecision; image-rendering:optimizeQuality; fill-rule:evenodd; clip-rule:evenodd"
viewBox="0 0 626.57 626.57"
 xmlns:xlink="http://www.w3.org/1999/xlink"
 xmlns:xodm="http://www.corel.com/coreldraw/odm/2003">
 <defs>
  <style type="text/css">
   <![CDATA[
    .fil0 {fill:#999999}
   ]]>
  </style>
 </defs>
 <g id="Layer_x0020_1">
  <metadata id="CorelCorpID_0Corel-Layer"/>
  <path class="fil0" d="M313.29 0c86.51,0 164.84,35.08 221.52,91.76 56.69,56.69 91.77,135.02 91.77,221.53 0,86.51 -35.08,164.84 -91.77,221.53 -56.68,56.69 -135.02,91.76 -221.52,91.76 -86.51,0 -164.85,-35.07 -221.53,-91.76 -56.68,-56.69 -91.76,-135.01 -91.76,-221.53 0,-86.52 35.08,-164.84 91.76,-221.53 56.68,-56.68 135.01,-91.76 221.53,-91.76zm-94.62 239.97c-0.42,0.25 -1.12,0.02 -1.33,0.62 -0.6,1.73 -1.57,0.68 -2.54,1.3 -4.38,2.83 -6.2,5.22 -6.63,12.53l8.7 41.79c3.46,11.17 5.08,8.2 13.67,12.86 1.54,17.99 2.28,28.36 11.44,41.66 9.98,14.5 7.73,22.76 6.48,47.07 -1.28,25.2 -41.4,38.55 -61.54,44.85 -26.25,8.21 -53.91,18.09 -76.65,29.76 -10.51,5.39 -18.23,15.27 -23.88,26.88 -41.53,-50.62 -66.49,-115.41 -66.49,-186 0,-81.01 32.85,-154.37 85.92,-207.46 53.08,-53.08 126.45,-85.92 207.46,-85.92 81,0 154.37,32.85 207.45,85.92 53.09,53.09 85.92,126.44 85.92,207.46 0,70.71 -25.01,135.59 -66.67,186.25 -5.47,-11.57 -12.89,-21.51 -23.04,-26.85 -52.94,-27.83 -91.27,-26.05 -129.88,-56.16 -6.03,-4.7 -8.38,-6.19 -9.07,-17.03 -4.51,-70.85 13.84,-27.91 17.71,-90.41 14.06,-8.52 9.8,5.05 17.86,-33.1 1.49,-7.11 4.66,-11.96 4.64,-20.04 -0.02,-7.31 -1.29,-10.53 -5.83,-13.52l-4.75 -2.44c5.84,-24.51 17.23,-103.2 -7.27,-122.06 -20.63,-15.88 -3.43,-1.29 -8.71,-10.23 -2.77,-4.72 -14.89,-1.13 -19.42,-0.54 -7.51,-11.41 -9.66,-17.38 -31.28,-18.86 -19.76,-1.35 -37.72,-7.04 -49.37,-3.32 -7.2,2.3 -7.19,5.5 -13.72,7.04 -8.16,1.92 -10.68,-0.29 -16.94,4.7 -25.02,19.98 -37.69,19.53 -45.8,64.19 -5.11,28.23 -2.64,52.69 3.55,79.09z"/>
 </g>
</svg>
