<?xml version="1.0" encoding="UTF-8"?>
<!DOCTYPE svg PUBLIC "-//W3C//DTD SVG 1.1//EN" "http://www.w3.org/Graphics/SVG/1.1/DTD/svg11.dtd">
<!-- Creator: CorelDRAW 2020 (64-Bit) -->
<svg xmlns="http://www.w3.org/2000/svg" xml:space="preserve" width="6.3501mm" height="6.35mm" version="1.1" style="shape-rendering:geometricPrecision; text-rendering:geometricPrecision; image-rendering:optimizeQuality; fill-rule:evenodd; clip-rule:evenodd"
viewBox="0 0 626.59 626.58"
 xmlns:xlink="http://www.w3.org/1999/xlink"
 xmlns:xodm="http://www.corel.com/coreldraw/odm/2003">
 <defs>
  <style type="text/css">
   <![CDATA[
    .fil0 {fill:#999999}
   ]]>
  </style>
 </defs>
 <g id="Layer_x0020_1">
  <metadata id="CorelCorpID_0Corel-Layer"/>
  <path class="fil0" d="M313.29 0c86.52,0 164.86,35.08 221.53,91.76 56.69,56.69 91.77,135.03 91.77,221.53 0,86.51 -35.08,164.85 -91.77,221.53 -56.68,56.69 -135.03,91.76 -221.53,91.76 -86.5,0 -164.85,-35.07 -221.52,-91.76 -56.68,-56.69 -91.77,-135.02 -91.77,-221.53 0,-86.52 35.09,-164.85 91.77,-221.53 56.68,-56.68 135.02,-91.76 221.52,-91.76zm209.5 518.7c-6.05,-12.21 -13.52,-23.66 -19.05,-29.14 -14.67,-14.5 -36.89,-20.47 -58.6,-27.91 -58.1,-19.92 -73.25,-25.74 -77.77,-94.85l34.69 1.54c-2.41,-4.77 -3.82,-5.58 -6.77,-9.33 0.35,-0.27 0.96,-0.99 1.14,-0.63l41.73 -13.65c-7.91,-15.98 -15.26,-15.86 -11.68,-42.65 7.24,-54.21 21.81,-76.8 -6.28,-143.04 -16.99,-40.08 -46,-74.99 -89.68,-77.8 -16.73,-1.08 -32.76,0.91 -40.57,14.51 -57.39,-10.35 -79.35,45.84 -93.44,90.3 -8.58,27.1 -9.61,54.5 -5.5,84.47 1.92,14 6.69,24.57 9.11,37.75 3.48,18.97 -5.12,25.46 -11.72,35.48 5.11,4.21 12.88,6.31 19.9,8.62l22.19 6.64 -5.83 7.53c-0.15,0.19 -0.51,0.6 -0.71,0.96 18.37,2.18 28.78,-1.29 35.13,1.69 -7.14,68.64 -19.44,73.17 -78.26,92.59 -20.5,6.78 -46.48,14.48 -57.86,27.03 -5.91,6.52 -13.33,17.81 -19.27,29.76 -51.8,-52.91 -83.77,-125.37 -83.77,-205.27 0,-81.01 32.85,-154.38 85.93,-207.46 53.08,-53.08 126.45,-85.93 207.45,-85.93 81.01,0 154.39,32.85 207.46,85.93 53.09,53.09 85.93,126.44 85.93,207.46 0,79.99 -32,152.49 -83.89,205.41z"/>
 </g>
</svg>
