<!--?xml version="1.0" encoding="UTF-8"?-->
<svg preserveAspectRatio="xMidYMid meet"
     data-bbox="46.386 37.161 561.514 196.8"
     viewBox="46.386 37.161 561.514 196.8"
     xmlns="http://www.w3.org/2000/svg"
     data-type="color" role="presentation"
     aria-hidden="true"
     aria-labelledby="svgcid-unml5fnf0imz">
    <title id="svgcid-unml5fnf0imz"></title>
    <g>
        <path
            d="M135.286 233.261c55.7 0 80.7-42.5 81.8-67.3 5.6-128 6.4-128.2 6.4-128.2h-176.4s.7.2 6.4 128.2c1 24.9 26.1 67.3 81.8 67.3z"
            fill-rule="evenodd"
            clip-rule="evenodd" fill="#ffffff"
            data-color="1"></path>
        <path
            d="M135.286 233.461c-31.2 0-50.7-13.3-61.5-24.4-14.4-14.7-20-31.9-20.5-43-5.4-123.6-6.3-128-6.3-128.1h.1v-.2h176.4v.2h.1c0 .1-.9 4.6-6.3 128.1-.5 11.1-6.1 28.3-20.5 43-10.8 11.1-30.3 24.4-61.5 24.4zm-88-195.4c.1.9.4 4.1 1.1 15.9.8 14.6 2.4 46 5.3 112.1.5 11.1 6.1 28.1 20.4 42.8 10.8 11.1 30.2 24.3 61.3 24.3 31.1 0 50.5-13.2 61.3-24.3 14.3-14.7 19.9-31.7 20.4-42.8 2.9-66.1 4.5-97.4 5.3-112.1.7-11.8.9-15 1.1-15.9h-176.2z"
            fill="#000000"
            data-color="2"></path>
        <path
            d="M135.286 233.261c51.7 0 77-36.6 81.2-61.7l-81.2-133.7-81.1 134.5c4.6 25.1 29.9 60.9 81.1 60.9z"
            fill="#225500" fill-rule="evenodd"
            clip-rule="evenodd"
            data-color="3"></path>
        <path
            d="M135.286 233.461c-22.8 0-42.9-7.3-58.1-21.1-11.9-10.8-20.5-25.7-23.2-39.9v-.2l81.2-134.8.2.3 81.3 133.8v.1c-4.2 24.8-29.3 61.8-81.4 61.8zm-80.9-61c2.6 14.1 11.2 28.9 23 39.7 15.1 13.7 35.1 21 57.9 21 51.8 0 76.8-36.7 81-61.5l-81-133.4-80.9 134.2z"
            fill="#000000"
            data-color="2"></path>
        <path
            d="M110.714 175.017c-.658.282-6.674 13.067-5.546 18.143.564 2.539-5.735 8.93-5.17 10.435.187 1.786-.565 3.102-1.693 4.794 1.974.94 4.043.47 6.017.188 1.598-1.786 1.504-3.102 1.88-4.888 0 0 3.572-1.598 4.606-3.854 1.41-2.914-1.41-2.35-.376-4.983 2.068-5.734 10.528-17.202 10.528-17.202"
            fill-rule="evenodd"
            clip-rule="evenodd" fill="#ffffff"
            data-color="1"></path>
        <path
            d="M100.937 209.141c-.94 0-1.88-.094-2.726-.564l-.188-.094.094-.188c1.222-1.786 1.88-3.008 1.692-4.7-.282-.752.658-2.162 2.256-4.418 1.505-2.256 3.197-4.7 2.915-6.017-1.034-4.888 4.7-17.955 5.64-18.33l.094.375-.094-.188.094.188c-.752.47-6.486 12.973-5.452 17.861.282 1.41-1.41 3.949-3.009 6.299-1.128 1.692-2.35 3.478-2.162 4.136.188 1.692-.47 3.008-1.598 4.794 1.598.658 3.196.47 4.983.188.282 0 .47-.094.752-.094 1.128-1.316 1.316-2.35 1.598-3.572l.282-1.128v-.094h.094s3.478-1.598 4.512-3.76c.752-1.41.376-1.974-.094-2.538-.376-.564-.846-1.128-.376-2.539 2.068-5.734 10.528-17.108 10.622-17.202l.283.188c-.095.094-8.46 11.468-10.53 17.108-.47 1.223-.093 1.693.283 2.163.47.564.94 1.222.094 2.914-1.034 2.068-4.136 3.572-4.606 3.854-.094.376-.188.752-.188 1.034-.282 1.222-.47 2.444-1.692 3.854v.094h-.094c-.282 0-.564.094-.752.094-.94.094-1.787.282-2.727.282z"
            fill="#000000"
            data-color="2"></path>
        <path
            d="M102.536 203.971c-.847 0-1.693-.094-2.539-.282l.094-.376c1.504.376 2.82.282 4.23.188.659 0 1.317-.094 1.975-.094v.376c-.658 0-1.316 0-1.974.094-.658.094-1.222.094-1.786.094z"
            fill="#000000"
            data-color="2"></path>
        <path
            d="m101.22 209.047-.283-.282c1.222-1.128 1.599-2.444 1.88-3.76.095-.47.283-.94.377-1.41l.376.094c-.188.47-.282.94-.376 1.41-.376 1.316-.658 2.726-1.975 3.948z"
            fill="#000000"
            data-color="2"></path>
        <path
            d="M106.766 189.306h-.376c.094-1.316.752-1.88 1.41-2.35l.188.282c-.564.376-1.128.94-1.222 2.068z"
            fill="#000000"
            data-color="2"></path>
        <path
            d="m108.176 199.929-.188-.282c.658-.282.846-.752.846-1.504h.376c0 .47-.094 1.316-1.034 1.786z"
            fill="#000000"
            data-color="2"></path>
        <path
            d="M115.038 176.71c-1.222-.094.658 12.22 3.666 19.083.752 1.692-1.128 3.196-2.162 6.674-.94 3.196-1.786 5.264-1.786 5.264 1.222.188 1.974.94 3.196.564.94.188 2.068.376 3.008-.282 0 0 .753-2.256 2.069-4.794 1.316-2.632 3.572-4.136 3.196-4.982-2.632-5.359-2.444-17.767-1.034-17.955"
            fill-rule="evenodd"
            clip-rule="evenodd" fill="#ffffff"
            data-color="1"></path>
        <path
            d="M119.362 208.577c-.47 0-.846-.094-1.316-.094h-.188c-.752.188-1.41 0-2.068-.282-.376-.188-.752-.282-1.128-.376h-.188l.094-.188s.846-2.068 1.786-5.17c.376-1.41 1.034-2.538 1.504-3.478.658-1.316 1.128-2.162.752-3.102-1.316-2.915-2.444-7.145-3.29-11.563-.564-3.102-1.034-6.956-.564-7.614.094-.188.282-.188.376-.188v.376c-.752.376.846 11.844 3.854 18.8.47 1.035 0 2.069-.752 3.385-.47.846-1.034 1.974-1.41 3.384-.752 2.632-1.504 4.418-1.692 5.076.376.094.752.188 1.034.282.658.282 1.128.47 1.88.282h.188c.846.094 1.786.282 2.632-.188.094-.376.847-2.444 2.069-4.794.658-1.316 1.504-2.256 2.162-3.102.658-.846 1.222-1.41 1.034-1.786-2.444-4.983-2.444-15.7-1.316-17.767.094-.282.282-.376.47-.47l.094.376s-.094 0-.188.282c-1.034 1.974-.94 12.69 1.316 17.485.282.564-.282 1.222-1.034 2.162-.658.752-1.504 1.786-2.068 3.008-1.316 2.538-2.068 4.794-2.068 4.794v.094h-.094c-.753.282-1.317.376-1.88.376z"
            fill="#000000"
            data-color="2"></path>
        <path
            d="M120.114 203.595h-.658c-1.128-.094-2.068-.47-3.008-1.034l.188-.282c.846.564 1.786.846 2.82.94 1.128.094 2.163-.094 3.479-.282l.094.376c-1.128.188-2.069.282-2.915.282z"
            fill="#000000"
            data-color="2"></path>
        <path
            d="m118.046 208.295-.376-.094c.282-2.068.846-3.76 1.504-4.888l.282.188c-.564 1.128-1.034 2.726-1.41 4.794z"
            fill="#000000"
            data-color="2"></path>
        <path
            d="m123.78 199.835-.281-.188c.376-.564.282-.94-.282-1.504l.282-.282c.47.376.94 1.128.282 1.974z"
            fill="#000000"
            data-color="2"></path>
        <g>
            <path
                d="M168.809 179.06c0 14.1 4.606 9.964 3.196 16.827-.752 3.666-3.854 4.606-4.7 7.144-.658 1.786-.752 3.76-1.128 5.64l3.29-.376c3.008 1.598 2.726-3.008 4.512-4.418 2.068-1.598 1.974-4.23 2.632-6.674.752-2.727 4.137-3.29 4.325-7.427.188-3.572-5.453-5.452-4.325-9.4"
                fill-rule="evenodd"
                clip-rule="evenodd"
                fill="#ffffff"
                data-color="1"></path>
            <path
                d="m165.989 208.953.094-.282c.094-.658.188-1.316.282-1.88.188-1.222.376-2.538.846-3.76.376-1.128 1.222-1.974 2.068-2.82 1.128-1.128 2.256-2.256 2.632-4.324.564-3.009.094-3.855-.752-5.077-1.034-1.598-2.444-3.854-2.444-11.75h.376c0 7.802 1.41 9.964 2.444 11.562.846 1.316 1.41 2.256.846 5.359-.47 2.068-1.692 3.384-2.726 4.512-.846.846-1.598 1.598-1.974 2.632-.376 1.222-.564 2.444-.752 3.76l-.282 1.692 3.102-.376h.094c.564.282 1.034.376 1.41.282.658-.282 1.034-1.222 1.41-2.162.376-.94.752-1.974 1.504-2.538 1.504-1.128 1.786-2.82 2.162-4.606.094-.658.282-1.316.376-1.974.282-1.128 1.129-1.974 1.88-2.727 1.129-1.128 2.35-2.35 2.445-4.7.094-1.598-1.034-2.726-2.162-4.042-1.41-1.504-2.82-3.102-2.163-5.358l.376.094c-.564 2.068.659 3.478 2.069 4.982 1.128 1.316 2.35 2.632 2.256 4.324-.094 2.538-1.41 3.76-2.538 4.888-.752.753-1.505 1.505-1.787 2.633-.188.658-.282 1.316-.376 1.88-.376 1.88-.658 3.666-2.256 4.888-.658.47-1.034 1.41-1.41 2.35-.376 1.034-.846 2.068-1.598 2.35-.47.188-1.034.094-1.692-.188l-3.76.376z"
                fill="#000000"
                data-color="2"></path>
            <path
                d="M170.877 204.347h-.564c-1.504-.094-2.444-.47-3.102-1.128l.282-.282c.564.658 1.504.94 2.82 1.034 1.128.094 2.444-.094 3.666-.188h.094v.376h-.094c-1.034 0-2.068.188-3.102.188z"
                fill="#000000"
                data-color="2"></path>
            <path
                d="m169.75 208.39-.283-.095c.47-1.222 1.128-2.632.752-4.136l.376-.094c.282 1.598-.376 3.008-.846 4.324z"
                fill="#000000"
                data-color="2"></path>
            <path
                d="m177.74 191.468-.188-.282c.752-.564.658-1.034.564-1.598 0-.188-.094-.282-.094-.47h.376c0 .188 0 .282.094.47.094.47.282 1.128-.752 1.88z"
                fill="#000000"
                data-color="2"></path>
        </g>
        <g>
            <path
                d="M157.716 180.47c-.658 2.726 2.633 6.956 1.88 7.52-4.418 2.914-6.204 6.204-6.58 6.486-2.444 1.975-6.58 4.137-7.896 7.897l-1.786 4.794c1.034.188 1.974.846 3.008.188.752.94 1.692.94 2.632.846.94.188 2.256-3.008 2.538-5.264.282-1.88 5.264-.188 5.546-1.88 1.222-6.675 8.93-8.555 10.153-13.913.846-3.478-1.41-6.392-1.598-8.178"
                fill-rule="evenodd"
                clip-rule="evenodd"
                fill="#ffffff"
                data-color="1"></path>
            <path
                d="M148.41 208.295c-.658 0-1.41-.188-1.974-.846-.846.376-1.504.188-2.162 0-.282-.094-.564-.188-.846-.188h-.188l1.88-4.982c1.034-3.008 3.948-5.076 6.204-6.674.658-.47 1.222-.847 1.692-1.223.094 0 .188-.282.376-.47.752-1.128 2.632-3.666 6.205-6.016.188-.094-.282-1.222-.658-2.068-.753-1.598-1.693-3.76-1.317-5.358l.376.094c-.376 1.504.564 3.666 1.223 5.17.564 1.316.94 2.162.564 2.444-3.479 2.35-5.265 4.794-6.11 5.922-.283.376-.377.47-.47.564-.565.377-1.129.847-1.693 1.317-2.35 1.692-5.076 3.572-6.11 6.486l-1.692 4.606c.188.094.47.094.658.188.752.188 1.316.376 2.068 0l.094-.094.094.094c.752.94 1.598.846 2.444.752.094 0 .188 0 .282-.094.752-.564 1.786-3.102 2.068-5.076.188-1.128 1.598-1.128 3.102-1.222 1.128 0 2.35 0 2.444-.658.658-3.666 3.197-5.828 5.64-7.99 2.069-1.787 4.043-3.479 4.607-5.923.564-2.256-.282-4.324-.94-5.922-.376-.846-.658-1.598-.658-2.256h.376c.094.564.376 1.316.658 2.162.658 1.692 1.504 3.76.94 6.11-.564 2.538-2.632 4.23-4.7 6.11-2.35 2.069-4.889 4.23-5.453 7.709-.188.94-1.504.94-2.82.94s-2.632 0-2.726.846c-.188 1.88-1.316 4.606-2.256 5.264-.188.094-.376.188-.564.188-.188.094-.47.094-.658.094z"
                fill="#000000"
                data-color="2"></path>
            <path
                d="M149.162 203.407h-.376c-1.128-.094-2.35-.376-3.666-.94l.188-.282c1.222.564 2.35.846 3.478.94.94.094 1.88-.094 2.82-.376l.094.376c-.846.188-1.692.282-2.538.282z"
                fill="#000000"
                data-color="2"></path>
            <path
                d="m146.53 207.355-.282-.282c1.034-.94 1.692-2.444 2.256-3.948l.376.094c-.564 1.692-1.222 3.196-2.35 4.136z"
                fill="#000000"
                data-color="2"></path>
            <path
                d="m154.99 199.835-.094-.376c.47-.188.658-.47.564-1.034l.376-.094c0 .846-.282 1.316-.846 1.504z"
                fill="#000000"
                data-color="2"></path>
            <path
                d="m165.552 186.5.329.184-1.193 2.133-.329-.183 1.193-2.134z"
                fill="#000000"
                data-color="2"></path>
        </g>
        <g>
            <path
                d="M107.424 143.62c-.752-1.316-.376-2.632-.188-3.854-2.726 2.538-4.794 3.478-5.359.846-.376.658-.846 1.034-1.504.752.282.376-2.068 4.7-3.572 3.854-1.504-.94.188-3.666.47-3.478 0 .094-4.042 2.726-5.076 1.504-1.034-1.222.752-4.607 1.222-4.418-5.452 4.042-.752-4.043.47-5.17-1.128-3.197 2.726-6.017 4.324-9.025-.282-.94-.47-1.88-.188-2.82.47-1.88 1.316-3.479 4.23-3.197.94-1.692 2.163-2.632 4.419-.94 1.128-2.35 3.196-1.974 5.358-1.128 1.41-.282 2.914-.658 4.7 1.034 1.974-.188 3.76.282 4.983 2.445 1.598.376 2.538 1.316 2.82 2.82 1.692.282 3.384.47 3.008 3.008 1.41.376 2.256 1.316 2.068 3.29 2.538 1.504 4.136 3.384 1.88 6.956 2.538 2.068 1.41 4.043.188 6.11.752 1.41.094 2.727-.94 4.137 1.974.188 3.948.376 4.982 2.444 1.598-1.692 3.29-1.222 4.983-1.034 1.504-1.222 3.196-1.786 5.264-.752 1.88-.94 3.666-.47 5.546.47 1.034-1.598 2.632-1.598 4.7-.752 1.41-.752 2.82-1.786 4.513-.564 1.41-.47 2.726-.752 3.666.752.188-1.222 3.76.094 3.854.752.282-.564 4.042-.188 3.854 1.316 1.692-.282 2.35.564 2.632 1.692 2.538.188 3.573 1.41 3.76 3.384 2.35.188 3.197 1.504 3.197 3.29 1.034.377 2.444 0 2.632 2.163.658-.846 3.29 1.41 2.444 2.726-.658 1.034 1.692 1.88 1.034 2.35 1.222 1.034 2.632 1.974 1.316 3.666 1.222.94 2.444 1.786 1.598 3.948 1.222 1.786 1.88 3.666-.564 5.64.846 1.787.094 2.539-2.068 2.539-1.034 1.504-2.256 1.222-3.478.47-1.128.94-2.068 0-3.008-.564-.188 1.598-1.41 1.598-3.008.94-1.223.376-2.257 1.222-4.23.094-1.975.658-3.479.094-4.795-1.786-.94 1.034-2.256 1.034-3.666.846-1.786 1.128-3.478.752-5.264.282-.846.846-1.786 1.222-2.82 1.128-1.693 1.316-3.385 1.786-5.077.188-1.786 1.786-3.572 1.128-5.358.376-1.974 1.786-4.042 1.692-6.016.094-1.787 1.504-3.573 2.068-5.359.94-1.786 1.88-3.572.752-5.358-.658-1.598 1.222-3.102.094-4.7-.94-1.974 1.034-3.666.376-5.077-1.974-.846 0-1.692-.282-2.162-1.316-1.598.564-3.102.282-4.7-.564-1.974.564-2.632-.94-3.478-2.163-1.598.188-2.35-1.598-3.102-3.478-1.598.47-1.974-1.222-2.35-3.008-1.504-1.598-.376-3.29.376-4.982-1.316-1.034-.658-2.162.094-3.384-2.632-3.008-1.034-5.077 1.034-6.957-1.128-1.128-.846-2.256-.752-3.384l.94-5.264c-.376-1.034.47-1.222.658-1.692z"
                fill-rule="evenodd"
                clip-rule="evenodd"
                fill="#ffffff"
                data-color="1"></path>
            <path
                d="M134.215 184.418c-1.128 0-2.256-.752-3.29-1.598-1.504 1.128-3.008.094-4.512-.846l-.188-.094c-1.974.94-3.666.282-5.17-1.974-.94 0-1.693-.47-2.163-1.316-1.504.47-3.008.282-4.606-.564-1.88.564-2.632-.752-3.384-1.88-.094-.095-.094-.189-.188-.283-1.598.188-2.35-1.598-3.102-3.384-.376.094-.752 0-1.034-.094-.752-.47-1.034-1.598-1.316-3.008-1.316-1.41-.658-3.102.094-4.606.094-.188.094-.282.188-.47-1.316-1.128-.564-2.444.094-3.384-2.538-3.008-.94-5.077.94-7.05-.846-.94-.846-1.88-.752-2.82v-.565l.94-5.17c-.376-.752 0-1.128.282-1.504l.282-.282c-.658-1.128-.47-2.256-.282-3.384-1.88 1.692-3.196 2.35-4.136 2.068-.47-.188-.847-.564-1.035-1.316-.282.376-.752.752-1.222.658-.094.658-.94 2.068-1.598 2.82-1.034 1.222-1.786 1.128-2.256.846-1.034-.564-.846-1.88-.376-2.82-.094.094-.282.188-.47.282-1.316.752-3.102 1.41-3.76.564-.658-.846-.282-2.538.376-3.666-.846.47-1.316.564-1.598.188-.752-.94 2.068-5.359 2.914-6.393-.752-2.256.94-4.324 2.444-6.392.658-.846 1.41-1.786 1.88-2.632-.282-.94-.47-1.88-.188-2.914.47-1.88 1.41-3.573 4.23-3.385.659-1.034 1.223-1.598 1.975-1.786.752-.188 1.504.094 2.444.752 1.222-2.256 3.29-1.88 5.358-1.034 1.504-.282 2.914-.658 4.794 1.034 2.256-.188 3.854.564 4.983 2.538 1.598.377 2.538 1.317 2.914 2.82 1.598.283 3.384.565 3.102 3.009 1.504.47 2.162 1.598 2.068 3.29 1.034.658 2.444 1.598 2.82 3.102.282 1.128 0 2.35-.846 3.854 2.538 2.162 1.222 4.325.188 6.11.658 1.41 0 2.727-.846 3.949 1.786.188 3.666.47 4.7 2.256 1.41-1.41 3.008-1.128 4.513-.94.188 0 .282 0 .47.094 1.786-1.41 3.478-1.692 5.264-.846 2.068-1.034 4.136-.282 5.452.47.94-1.41 2.538-1.598 4.7-.658l.282-.094c1.316-.752 2.633-1.504 4.325-.376 1.222-.47 2.632-.752 3.572.658.188-.188.47-.282.94-.282.94 0 2.538.564 3.008 1.128.47-.282 1.598-.188 2.35.094.94.282 1.504.752 1.598 1.316 1.786-.188 2.35.752 2.632 1.692 2.256.188 3.479 1.316 3.76 3.384 2.069.282 3.197 1.316 3.29 3.29.189.094.377.094.565.094.846.188 1.786.282 2.068 1.88.376-.093.846 0 1.316.377.846.564 1.692 1.88 1.128 2.726-.282.47.094.846.658 1.316.282.282.564.564.564.752v.188l.188.188c1.034.846 2.256 1.88 1.128 3.478 1.128.846 2.35 1.88 1.504 3.948 1.128 1.692 1.88 3.666-.47 5.735.376.752.376 1.41.094 1.88-.376.564-1.128.846-2.35.846-1.222 1.598-2.538 1.128-3.572.47-1.034.752-1.88.188-2.632-.282-.094-.094-.188-.094-.282-.188-.094.47-.376.846-.658 1.034-.564.282-1.316.282-2.538-.188-.188.094-.47.188-.658.188-.94.376-1.975.752-3.573-.188-1.88.564-3.478 0-4.794-1.692-.94.94-2.256.94-3.666.752-1.786 1.034-3.478.752-5.264.282-.846.752-1.786 1.128-2.727 1.128-1.974 1.598-3.572 1.598-5.17.282-1.88 1.786-3.76 1.034-5.358.376-1.974 1.692-3.948 1.692-6.016.188-1.975 1.598-3.76 1.88-5.359.94-.564.752-1.222 1.034-1.974 1.034zm-3.29-2.068.094.094c1.692 1.41 3.384 2.444 5.076.658l.094-.094.094.094c1.504 1.034 3.196.752 5.17-.94l.095-.094.094.094c1.974 1.598 3.948 1.504 5.828-.094l.094-.094h.094c1.88.846 3.478 1.316 5.17-.376l.094-.094.094.094c1.41 1.41 2.914 1.316 4.888-.188h.188c.94.094 1.88-.282 2.633-1.034l.094-.094h.094c1.786.47 3.478.752 5.17-.282h.188c1.41.188 2.726.188 3.572-.752l.188-.188.094.188c1.222 1.786 2.632 2.35 4.512 1.692h.188c1.41.846 2.35.564 3.29.188.283-.094.47-.188.753-.282h.188c1.034.47 1.786.564 2.256.282.282-.188.47-.564.564-1.034v-.282l.188.094c.188.094.376.188.47.282.752.47 1.504.94 2.35.282l.094-.094.094.094c1.41.94 2.444.752 3.29-.376l.094-.094h.094c1.128 0 1.786-.282 2.068-.658.188-.376.188-.94-.188-1.598l-.094-.094.094-.094c2.256-1.88 1.786-3.479.47-5.453l-.094-.094v-.094c.752-1.974-.282-2.82-1.41-3.666l-.188-.188.094-.094c1.128-1.41.188-2.162-.94-3.102l-.282-.282-.188-.094.188-.094v-.094c0-.094-.282-.376-.47-.564-.47-.47-1.128-1.034-.658-1.786.47-.658-.188-1.692-1.034-2.256-.376-.282-.94-.47-1.128-.282l-.282.376-.094-.47c-.188-1.598-.94-1.692-1.786-1.88-.282 0-.47-.095-.752-.189h-.094v-.094c-.094-1.974-1.034-2.914-3.102-3.102h-.188v-.188c-.282-2.068-1.41-3.102-3.573-3.196h-.094v-.094c-.282-.94-.752-1.786-2.444-1.504h-.282v-.282c.094-.564-.658-.94-1.034-1.034-1.128-.376-2.35-.282-2.444-.188l-.282.564-.094-.658c0-.282-1.598-1.034-2.726-1.128-.47 0-.752.094-.752.376l-.094.564-.282-.47c-.752-1.316-1.786-1.316-3.384-.752h-.094l-.094-.094c-1.504-1.128-2.727-.376-4.043.376l-.376.188h-.094c-2.162-.94-3.572-.752-4.512.658l-.094.094-.188-.094c-2.162-1.128-3.854-1.316-5.358-.47h-.188c-1.692-.846-3.29-.658-4.982.752l-.094.094h-.094c-.188 0-.376 0-.564-.094-1.505-.188-3.009-.376-4.325 1.034l-.188.188-.094-.188c-1.034-1.974-3.008-2.162-4.888-2.35h-.282l.188-.282c.94-1.222 1.598-2.538.94-3.948l-.094-.094.094-.094c1.41-2.256 2.162-4.043-.188-5.829l-.094-.094.094-.094c.846-1.41 1.222-2.632.94-3.666-.282-1.128-1.128-1.974-2.82-3.008l-.094-.094v-.094c.188-1.692-.47-2.632-1.88-3.102h-.188v-.188c.376-2.256-1.128-2.538-2.726-2.82h-.188v-.094c-.282-1.41-1.222-2.256-2.726-2.632h-.094v-.094c-1.035-1.88-2.539-2.633-4.795-2.35h-.094l-.094-.095c-1.692-1.692-3.102-1.316-4.512-1.034h-.188c-2.256-.94-4.042-1.034-5.076 1.034l-.094.188-.188-.094c-.94-.658-1.692-.94-2.35-.846-.658.094-1.222.658-1.786 1.692l-.094.094h-.095c-2.538-.282-3.478 1.034-4.042 3.103-.282.94-.094 1.786.188 2.726v.188c-.47.94-1.222 1.88-1.974 2.82-1.598 2.068-3.102 3.948-2.35 6.11v.094l-.094.094c-.94.846-3.572 5.265-3.008 5.923.094.094.376.282 1.786-.658.282-.283.47-.47.658-.377l.282.094-.282.189c-.188.094-.282.188-.47.282-.188.282-.564.846-.752 1.504-.376 1.034-.376 1.88 0 2.35.094.188.376.282.564.282 1.128.094 2.914-.94 3.76-1.504.188-.188.376-.376.564-.282h.094v.094c0 .094 0 .188-.47.47a3.57 3.57 0 0 0-.658 1.598c-.094.658.094 1.128.564 1.316.282.188.658.094 1.128-.188 1.222-.846 2.256-3.102 2.162-3.384l.188-.282c.47.188.846 0 1.316-.752l.282-.376.094.376c.188.752.47 1.222.847 1.41.846.282 2.162-.564 4.136-2.35l.376-.376-.094.564c0 .094-.094.282-.094.376-.188 1.128-.47 2.256.188 3.384l.094.094v.094c-.094.188-.188.282-.376.47-.282.282-.47.47-.188 1.128v.094l-.94 5.264v.564c-.094.94-.094 1.786.752 2.632l.094.094-.094.094c-2.068 1.974-3.572 3.855-.94 6.769l.094.094-.094.094c-.752 1.222-1.316 2.256-.094 3.102l.094.094-.094.094-.282.564c-.658 1.504-1.316 2.914-.094 4.23v.094c.282 1.222.47 2.444 1.128 2.82.282.188.564.188.94.094h.188l.094.188c.752 1.786 1.41 3.572 2.914 3.29h.094l.094.094c.094.094.188.282.188.376.658 1.129 1.316 2.257 3.008 1.787h.188c1.598.846 3.102 1.034 4.512.47l.188-.094.094.094c.47.846 1.034 1.222 1.974 1.222h.094l.094.094c1.41 2.256 3.009 2.914 4.889 1.88l.094-.094.376.188c1.504.94 2.82 1.786 4.23.752l.47.188z"
                fill="#000000"
                data-color="2"></path>
            <path
                d="m116.354 162.045-.564-.282c-.94-.47-1.974-.94-1.41-3.196-.846-.94-.94-1.975-.47-3.29-.94-1.41-.376-2.445.094-3.29l.094-.189-.094-4.136c0-.188.094-.376.094-.47.094-.846.282-1.786 1.128-2.068-.094-1.692.846-1.974 1.692-2.256.094 0 .188-.094.282-.094l.094.376c-.094 0-.188.094-.376.094-.846.282-1.598.47-1.504 1.974v.188h-.188c-.752.094-.846.94-1.034 1.786 0 .188-.094.376-.094.47l.094 4.23-.094.188c-.47.846-.94 1.692 0 3.008l.094.094v.094c-.47 1.222-.376 2.162.47 3.009l.094.094v.094c-.564 2.068.188 2.444 1.128 2.82l.564.282-.094.47z"
                fill="#000000"
                data-color="2"></path>
            <path
                d="M115.978 130.741c1.786.752 6.11 1.692 5.077 7.05-2.539-1.786-5.829-.282-7.709-3.102-.846 3.384-3.196 4.513-6.016 5.077"
                fill-rule="evenodd"
                clip-rule="evenodd"
                fill="#ffffff"
                data-color="1"></path>
            <path
                d="m107.33 139.86-.094-.376c2.444-.47 5.076-1.41 5.922-4.889l.094-.376.188.376c1.034 1.504 2.538 1.692 4.042 1.974 1.128.188 2.256.282 3.384.94.753-4.324-2.256-5.546-4.324-6.298-.282-.094-.47-.188-.752-.282l.188-.282c.188.094.47.188.658.282 1.974.752 5.359 2.068 4.419 6.956l-.095.282-.188-.188c-1.034-.752-2.256-.846-3.384-1.034-1.504-.188-3.008-.376-4.136-1.786-.846 3.29-3.478 4.23-5.922 4.7z"
                fill="#000000"
                data-color="2"></path>
            <path
                d="M108.834 126.135c14.195-10.247 29.423 11.468 14.383 22.749-8.273 6.204-22.656 5.076-21.246-7.144 2.35 2.82 5.359 5.546 9.213 5.828 6.298.47 12.22-5.64 11.469-11.939-.564-2.82-3.479-4.418-6.11-4.606-1.129-.188-2.539.188-3.573-.094-1.128-.47-1.41-.658-1.786-1.786-1.222-.282-.752-1.222-1.41-1.41-1.222-.188-.94-.94-.94-1.598z"
                fill-rule="evenodd"
                clip-rule="evenodd"
                fill="#ffffff"
                data-color="1"></path>
            <path
                d="M112.218 152.832c-2.256 0-4.512-.47-6.204-1.504-2.256-1.316-4.889-4.042-4.23-9.588l.093-.376.282.282c3.009 3.666 5.923 5.546 9.119 5.734 2.914.188 6.11-1.128 8.366-3.478 2.257-2.35 3.29-5.359 2.915-8.273-.564-2.726-3.479-4.324-5.923-4.418-.47-.094-1.034 0-1.504 0-.752 0-1.504.094-2.162-.094-1.128-.47-1.504-.658-1.88-1.786-.658-.188-.846-.658-.94-.94-.094-.282-.094-.376-.282-.376-1.128-.188-1.128-.94-1.034-1.504v-.376l.094-.094c3.196-2.35 6.674-3.196 10.152-2.444 3.009.658 5.829 2.538 7.803 5.264 2.162 2.914 3.196 6.58 2.82 10.059-.376 3.948-2.538 7.52-6.204 10.246-3.385 2.35-7.52 3.666-11.281 3.666zm-10.153-10.622c-.47 5.076 1.975 7.614 4.043 8.836 4.512 2.632 11.844 1.598 16.92-2.256 5.735-4.324 8.65-12.503 3.29-19.835-5.075-6.862-12.502-6.204-17.39-2.726v.188c0 .564-.094 1.034.752 1.128.376.094.47.376.564.658.094.282.188.658.846.752h.094v.094c.376 1.034.564 1.222 1.692 1.692.564.188 1.316.188 1.974.094.564 0 1.034-.094 1.598 0 2.632.094 5.64 1.786 6.299 4.7.376 3.008-.752 6.11-3.009 8.555-2.35 2.444-5.546 3.76-8.648 3.572-3.102-.094-6.016-1.974-9.025-5.452z"
                fill="#000000"
                data-color="2"></path>
            <path
                d="M113.628 151.328c-4.23 0-8.178-2.35-11.374-6.862l.282-.188c4.606 6.392 9.494 7.144 12.878 6.58 5.076-.846 9.87-5.17 11.375-10.434 1.034-3.479.47-7.05-1.692-9.87-2.726-3.48-7.52-5.265-13.443-4.89v-.375c6.016-.282 10.905 1.504 13.725 5.076 2.256 2.82 2.914 6.58 1.786 10.153-1.692 5.452-6.487 9.776-11.657 10.622-.658.094-1.222.188-1.88.188z"
                fill="#000000"
                data-color="2"></path>
            <path
                d="m125.335 141.03 1.17.786-.21.313-1.17-.787.21-.312z"
                fill="#000000"
                data-color="2"></path>
            <path
                d="M127.353 138.92c-.658-.377-1.222-.659-1.974-.565v-.376c.846-.094 1.504.188 2.068.564h.094l-.188.377z"
                fill="#000000"
                data-color="2"></path>
            <path
                d="m124.533 135.253-.094-.282c1.128-.47 2.162-.376 2.914-.188l-.094.376c-.658-.282-1.692-.376-2.726.094z"
                fill="#000000"
                data-color="2"></path>
            <path
                d="m121.525 132.527-.282-.282c1.222-1.222 2.444-1.974 3.666-2.35l.094.376c-1.128.376-2.256 1.128-3.478 2.256z"
                fill="#000000"
                data-color="2"></path>
            <path
                d="M118.046 130.647c0-1.598.376-3.008 1.222-4.324l.282.188c-.846 1.316-1.128 2.632-1.128 4.136h-.376z"
                fill="#000000"
                data-color="2"></path>
            <path
                d="M114.098 130.741c-1.222-1.974-1.41-3.76-.564-5.358l.282.188c-.846 1.504-.658 3.196.564 5.076l-.282.094z"
                fill="#000000"
                data-color="2"></path>
            <path
                d="m123.829 144.394.8.794-.264.267-.801-.794.265-.267z"
                fill="#000000"
                data-color="2"></path>
            <path
                d="m121.638 146.708.72.741-.27.262-.72-.741.27-.262z"
                fill="#000000"
                data-color="2"></path>
            <path
                d="M118.422 150.2c-.846-.282-1.222-.846-1.504-1.41-.094-.094-.188-.282-.282-.376l.282-.188c.094.094.188.282.282.376.282.564.564 1.034 1.316 1.222l-.094.376z"
                fill="#000000"
                data-color="2"></path>
            <path
                d="M114.568 151.234c-.658-.47-.846-.94-1.128-1.41-.094-.188-.188-.282-.188-.47l.282-.188c.094.188.188.282.282.47.188.47.376.846 1.034 1.222l-.282.376z"
                fill="#000000"
                data-color="2"></path>
            <path
                d="M109.21 150.388c-.564-.564-.658-1.222-.658-1.692h.376c0 .47.094 1.034.564 1.504l-.282.188z"
                fill="#000000"
                data-color="2"></path>
            <path
                d="m105.756 147.074.147.928-.372.06-.147-.93.372-.058z"
                fill="#000000"
                data-color="2"></path>
            <path
                d="m104.439 145.941.137.74-.37.068-.137-.74.37-.068z"
                fill="#000000"
                data-color="2"></path>
            <path
                d="m107.135 147.944.015 1.034-.376.006-.015-1.034.376-.006z"
                fill="#000000"
                data-color="2"></path>
            <path
                d="M111.842 151.14c-.658-.564-.846-1.222-1.034-1.692l.376-.094c.094.564.282 1.034.846 1.598l-.188.188z"
                fill="#000000"
                data-color="2"></path>
            <path
                d="M116.542 150.858c-.846 0-1.128-.752-1.316-1.316-.094-.188-.188-.376-.188-.564l.282-.188c.094.188.188.376.282.658.282.752.47 1.128 1.128 1.128v.376l-.188-.094z"
                fill="#000000"
                data-color="2"></path>
            <path
                d="m119.693 147.825 1.01.845-.242.288-1.009-.844.241-.289z"
                fill="#000000"
                data-color="2"></path>
            <path
                d="m122.777 145.39.939.782-.241.289-.94-.782.242-.29z"
                fill="#000000"
                data-color="2"></path>
            <path
                d="m124.646 142.667 1.164.615-.176.333-1.163-.615.175-.333z"
                fill="#000000"
                data-color="2"></path>
            <path
                d="m125.589 139.597 1.457.657-.155.342-1.457-.656.155-.343z"
                fill="#000000"
                data-color="2"></path>
            <path
                d="m124.815 137.04-.094-.377c.94-.376 1.88-.376 2.82-.282v.376c-.94-.094-1.88-.094-2.726.282z"
                fill="#000000"
                data-color="2"></path>
            <path
                d="m123.78 132.997-.093-.282c1.034-.376 1.88-.564 2.82-.564v.376c-.94-.094-1.786.094-2.726.47z"
                fill="#000000"
                data-color="2"></path>
            <path
                d="M120.114 131.305c-.094-1.786.846-2.914 1.787-3.854l.282.282c-.846.94-1.787 1.974-1.693 3.666l-.376-.094z"
                fill="#000000"
                data-color="2"></path>
            <path
                d="M116.166 130.647c-.282-1.974-.282-3.572 0-4.982l.376.094c-.282 1.41-.282 3.008 0 4.888h-.376z"
                fill="#000000"
                data-color="2"></path>
            <path
                d="m107.413 130.174 1.692.028-.006.376-1.692-.028.006-.376z"
                fill="#000000"
                data-color="2"></path>
            <path
                d="M105.638 131.587c-.658 0-1.316-.376-2.162-1.128l-.094-.094v-.094c.376-.94.846-1.504 1.41-1.598.94-.188 1.974.752 2.632 1.598l.094.094-.094.094c-.564.658-1.128 1.034-1.786 1.128zm-1.88-1.316c.752.658 1.41 1.034 1.974.94.47 0 .94-.282 1.41-.846-.846-1.034-1.598-1.504-2.256-1.41-.47.188-.846.564-1.128 1.316z"
                fill="#000000"
                data-color="2"></path>
            <path
                d="m100.667 130.08 2.82.046-.006.376-2.82-.046.006-.376z"
                fill="#000000"
                data-color="2"></path>
            <path
                d="M105.544 131.681c-.188 0-.188-.188-.282-.188-.188-.376-.658-2.162-.282-2.726l.282.188c-.282.47.188 2.162.376 2.35h-.094c-.094 0-.094 0-.094.094l.282.188s-.094.094-.188.094z"
                fill="#000000"
                data-color="2"></path>
            <path
                d="m110.996 122.469-.376-.094c.282-.658.564-1.034 1.034-1.222.47-.188 1.034 0 1.504.188.282-.376.564-.658.94-.752.658-.094 1.222.282 1.504.564l.188-.188c.376-.188.94-.188 1.316 0 .282.188.376.376.376.658h-.376c0-.188-.094-.282-.188-.376-.282-.188-.658-.094-.94 0-.094 0-.094.094-.094.188v.376l-.282-.282s-.752-.752-1.41-.564a1.257 1.257 0 0 0-.752.658l-.094.188-.188-.094c-.564-.282-.94-.376-1.41-.282-.282.188-.564.47-.752 1.034z"
                fill="#000000"
                data-color="2"></path>
            <path
                d="m104.886 122.75-.282-.281c.564-.564 1.316-1.128 2.256-1.316.47-.846 1.222-1.41 2.444-1.693l.094.377c-1.128.188-1.88.752-2.256 1.598v.094h-.094c-.94.188-1.598.658-2.162 1.222z"
                fill="#000000"
                data-color="2"></path>
            <path
                d="m103.288 123.22-.376-.093c.188-1.128.846-1.88 2.068-2.538.282-.658.658-1.317 1.504-1.599.47-.282.94-.188 1.41-.188h.188c.094 0 .188-.094.188-.094.658-.376 1.504-.846 2.726-.188l-.188.282c-1.128-.564-1.692-.188-2.444.188-.094.094-.188.094-.282.188h-.282c-.47 0-.846 0-1.316.188-.752.282-1.034.753-1.316 1.505v.094h-.094c-1.034.564-1.692 1.222-1.786 2.256z"
                fill="#000000"
                data-color="2"></path>
            <path
                d="M119.644 135.63c-1.504-.283-3.196-.753-4.888-1.787l.188-.282c1.316.846 2.726 1.316 3.948 1.598l-1.128-1.128c-.94-.94-1.786-1.786-2.632-1.504l-.094-.376c1.034-.376 1.974.564 3.008 1.598.564.564 1.128 1.128 1.786 1.598l-.188.282z"
                fill="#000000"
                data-color="2"></path>
            <path
                d="M106.766 135.441c-.282 0-.564-.094-.94-.282l.188-.282c.94.564 1.504 0 2.162-.564l.282-.282.094-.094h.094c.94.376 1.41-.188 1.974-1.316l.282.188c-.376.752-1.034 1.974-2.35 1.504l-.188.188c-.47.47-.94.94-1.598.94z"
                fill="#000000"
                data-color="2"></path>
            <path
                d="m104.886 138.45-.094-.377c.658-.094.846-.47 1.128-.94l.094-.188h.094c.658.094 1.222-.094 1.786-.752l.094-.094h.094c1.034.282 1.786-.188 2.444-.752l.188.282c-.564.47-1.41 1.034-2.632.846-.564.658-1.222.94-1.974.846-.188.47-.47 1.034-1.222 1.128z"
                fill="#000000"
                data-color="2"></path>
            <path
                d="M100.373 141.458c-.752-.094-1.128-2.162-1.128-2.726 0-.095 0-.189.094-.283v-.094c-.094-.658-.282-1.41.094-1.974-.094-.658 0-1.316.282-1.974-.188-.94.282-1.504.752-1.974l.282.282c-.47.47-.846.94-.564 1.692v.188a2.214 2.214 0 0 0-.282 1.88v.188c-.282.47-.188 1.128-.094 1.786l.094.377h-.094c0 .376.188 1.598.564 2.162.094.094.188.188.282.188l-.282.282z"
                fill="#000000"
                data-color="2"></path>
            <path
                d="M106.202 126.887c-.752 0-1.41-.376-1.88-1.222-.752.47-1.316.564-1.88.47-.659-.188-1.129-.752-1.505-1.41-.846.376-1.598.188-2.444-.094H98.4l.094-.376h.094c.846.188 1.598.47 2.35 0l.188-.094.094.188c.376.658.752 1.222 1.317 1.41.47.094 1.034-.094 1.786-.47l.188-.094.094.188c.752 1.222 1.598 1.504 2.726.94l.188.282c-.564.188-.94.282-1.316.282z"
                fill="#000000"
                data-color="2"></path>
            <path
                d="M101.877 138.732c-.564-.47-.752-1.223-.564-2.069-.376-.846 0-1.316.376-1.692l.094-.094.282.282-.094.094c-.376.376-.658.752-.282 1.41v.188c-.188.752-.094 1.316.376 1.787l-.188.094z"
                fill="#000000"
                data-color="2"></path>
            <path
                d="M113.346 143.996c-.188-1.222.752-1.786 1.504-2.068.094-.188.282-.282.376-.47.564-.658 1.128-1.41 2.726-.94l-.094.376c-1.41-.376-1.786.188-2.35.846-.094.188-.282.376-.47.564h-.094c-1.034.376-1.41.94-1.316 1.692h-.282z"
                fill="#000000"
                data-color="2"></path>
            <path
                d="M122.653 167.78c-1.599-.377-2.82-1.505-3.479-3.291-1.128-.282-1.598-1.222-1.598-2.632-.094 0-.188 0-.282-.094-.658-.282-1.88-1.692-1.598-2.632l.376.094c-.188.564.752 1.88 1.316 2.162 0 0 .188.094.188 0l.376.094c-.094 1.504.376 2.35 1.41 2.632h.094v.094c.658 1.786 1.693 2.82 3.197 3.196v.376z"
                fill="#000000"
                data-color="2"></path>
            <path
                d="M121.995 166.087c-.846 0-1.317-1.128-1.693-2.35l.376-.094c.377 1.128.847 2.256 1.505 2.162v.376c-.094-.094-.188-.094-.188-.094z"
                fill="#000000"
                data-color="2"></path>
            <path
                d="M106.202 156.498c-.282-.752.376-1.692.846-1.974.188-.188.376-.188.564-.094l-.188.282h.094c-.094 0-.47.282-.658.752-.188.282-.282.658-.188.94l-.47.094z"
                fill="#000000"
                data-color="2"></path>
            <path
                d="m131.207 167.967-.282-.282c.846-.94.846-1.88 0-3.102v-.188c.376-1.316-.094-1.974-.564-2.632-.094-.188-.188-.282-.376-.47v-.188c.564-2.068-.376-3.102-1.222-3.949l-.094-.094v-.094c.188-1.222-.47-1.974-1.504-2.914l.188-.282c.94.846 1.786 1.692 1.598 3.102.94.847 1.88 1.975 1.316 4.137.094.094.188.282.282.376.47.658 1.034 1.41.658 2.82.94 1.692.94 2.82 0 3.76z"
                fill="#000000"
                data-color="2"></path>
            <path
                d="m129.139 164.113-.282-.188c.564-.752.282-1.504-.658-2.444-.094-.188-.094-.376-.188-.658-.376-1.034-.752-2.162-.658-3.855h.376c-.094 1.599.282 2.633.658 3.76.094.189.094.377.188.565.564.564 1.41 1.598.564 2.82z"
                fill="#000000"
                data-color="2"></path>
            <path
                d="M132.617 148.602c-1.692-.376-2.632-.94-3.008-1.692-.188-.564-.188-1.128.188-1.88-.282-.94-.282-1.974.094-2.914l.376.094c-.376.94-.376 1.88-.094 2.82v.188c-.376.658-.47 1.128-.282 1.598.282.658 1.222 1.128 2.726 1.504v.282z"
                fill="#000000"
                data-color="2"></path>
            <path
                d="m146.154 150.106-.094-.094c-.846-.752-1.88-1.034-3.196-.846l-.094-.376c1.316-.188 2.35.094 3.29.846.094-.094.282-.282.376-.47 1.034-1.128 2.068-2.35 4.324-.564 1.034-1.034 2.162-1.786 4.324-1.034l-.094.376c-2.068-.752-3.008 0-4.042 1.034l-.094.094-.094-.094c-2.068-1.692-2.914-.752-3.948.376l-.564.564-.094.188z"
                fill="#000000"
                data-color="2"></path>
            <path
                d="M169.091 157.909c-.282-1.975-1.504-2.163-2.82-2.069h-.188v-.188c-.282-1.222-1.034-1.316-2.35-1.222h-.094l-.094-.094c-.564-.846-1.41-1.128-2.538-.752l-.094-.376c1.222-.376 2.256-.094 2.914.846 1.128-.094 2.256 0 2.632 1.316 1.316-.094 2.726.188 3.008 2.445l-.376.094z"
                fill="#000000"
                data-color="2"></path>
            <path
                d="M167.399 158.003c-.564-.659-1.128-.847-1.692-.94l-.282-.095c-.752-.752-1.41-.94-1.88-.658l-.188-.282c.846-.47 1.692.188 2.256.752h.188c.658.094 1.316.282 1.88 1.035l-.282.188z"
                fill="#000000"
                data-color="2"></path>
            <path
                d="m179.808 156.028-2.256-1.41-1.787-2.35.282-.188 1.787 2.256 2.162 1.41-.188.282z"
                fill="#000000"
                data-color="2"></path>
            <path
                d="m184.79 163.36-.376-.093c.188-1.316-.188-1.504-.752-1.692-.282-.094-.47-.188-.658-.376l-.094-.094.094-.094c.282-.564-.188-1.128-.752-1.692l-.188-.188.282-.188.188.188c.564.564 1.128 1.316.846 1.974.094.094.282.188.47.282.564.188 1.222.376.94 1.974z"
                fill="#000000"
                data-color="2"></path>
            <path
                d="m183.004 165.24-.282-.187c.47-.846.846-1.692-.094-2.726l.282-.282c1.034 1.222.564 2.256.094 3.196z"
                fill="#000000"
                data-color="2"></path>
            <path
                d="m181.594 180.094-.376-1.786.094-.094c.846-.752 1.222-1.316 1.128-1.786 0-.377-.376-.753-.94-1.035l-.282-.188.282-.188c.47-.188.658-.47.752-.752.094-.376-.188-.846-.846-1.504l-.094-.094v-.094c.376-1.128.094-1.692-.376-2.162l-.094-.094v-.094c.282-1.034-.188-1.504-.846-2.068l-.564-.564-.094-.094.094-.094c.658-1.222.094-2.35-.564-3.478v-.094c-.188-1.034-.47-1.598-.846-1.88-.282-.188-.659-.188-1.035-.094l-.094-.376c.564-.094 1.035-.094 1.317.188.564.376.846 1.034 1.034 2.162.658 1.128 1.316 2.35.658 3.666.094.188.282.282.47.47.564.564 1.316 1.222.94 2.35.376.47.752 1.222.376 2.35.658.658.94 1.222.846 1.692-.094.282-.282.564-.658.846.564.376.846.752.846 1.129.094.752-.564 1.41-1.128 1.974l.376 1.598-.376.188z"
                fill="#000000"
                data-color="2"></path>
            <path
                d="M188.362 171.257c-.188-1.222-.658-2.068-1.598-2.726l-.188-.094.094-.188c.564-.658.376-1.316.094-2.068 0-.094-.094-.188-.094-.282l.376-.094c0 .094.094.188.094.282.188.658.47 1.504-.094 2.256.94.658 1.504 1.598 1.598 2.82l-.282.094z"
                fill="#000000"
                data-color="2"></path>
            <path
                d="M186.482 176.992c-.47 0-1.222-.658-2.162-1.88l.282-.189c1.316 1.787 1.786 1.787 1.974 1.787.094 0 .47-.282.376-1.88.658-1.88-.188-2.257-1.128-2.727l-.188-.094v-.094c.188-.752.282-1.316-.47-1.598l.188-.282c.94.376.846 1.222.658 1.88.94.47 1.974 1.034 1.222 3.102.094 1.317-.188 2.069-.658 2.257.094-.282 0-.282-.094-.282z"
                fill="#000000"
                data-color="2"></path>
            <path
                d="M165.989 180.376c-1.222-.658-1.41-1.88-1.692-2.914v-.188c-1.692.564-2.256-.846-2.82-2.069v-.094c-1.41-.188-3.103-.846-2.915-3.008h.377c-.094 1.504.658 2.35 2.726 2.632h.094l.094.282c.564 1.317 1.034 2.445 2.538 1.88l.188-.093v.188c0 .094.094.282.094.376.188 1.128.376 2.068 1.504 2.726l-.188.282z"
                fill="#000000"
                data-color="2"></path>
            <path
                d="M161.947 173.701c-1.504 0-1.692-.94-1.88-1.692-.094-.188-.094-.376-.188-.564l.376-.094c.094.188.094.376.188.564.188.846.376 1.598 2.162 1.41v.376c-.282-.094-.47 0-.658 0z"
                fill="#000000"
                data-color="2"></path>
            <path
                d="m162.605 169.753-.376-.094c.282-1.128-.47-1.598-1.41-2.256l-.188-.094v-.094c.188-1.41-.282-1.598-.752-1.786-.282-.094-.564-.188-.846-.47-.565-.846-1.035-.846-1.599-.752h-.658l.094-.376h.564c.564 0 1.223-.094 1.88.94.189.188.377.282.659.376.564.188 1.316.47 1.034 2.068.94.47 1.88 1.128 1.598 2.538z"
                fill="#000000"
                data-color="2"></path>
            <path
                d="M164.485 169.66h-.376c.094-1.317-.564-1.787-1.41-2.257l-.282-.188.094-.188c.564-1.034.188-1.316-.376-1.598a1.133 1.133 0 0 1-.47-.47l.282-.188c.094.094.282.282.47.376.47.376 1.034.752.564 1.88.752.564 1.598 1.128 1.504 2.632z"
                fill="#000000"
                data-color="2"></path>
            <path
                d="m172.475 169.565-.376-.094c.188-1.034-.188-1.598-1.316-2.068l-.094-.094v-.094c.188-1.598-.658-1.974-1.598-2.538-.188-.094-.376-.188-.47-.282l-.094-.094v-.094c.188-.658-.094-.752-.47-1.034-.188-.094-.376-.188-.47-.376l.282-.188c.094.094.282.188.376.282.376.188.752.47.658 1.222.094.094.282.094.376.188.94.47 1.974 1.034 1.786 2.726.752.47 1.692 1.128 1.41 2.538z"
                fill="#000000"
                data-color="2"></path>
            <path
                d="M155.648 180.846c-.188 0-.376 0-.564-.094l.094-.376c.94.282 1.316-.188 1.692-.752l.094-.094.094.094c1.034.47 2.257.564 3.573.188l.094.376c-1.41.376-2.539.282-3.667-.188-.282.376-.658.846-1.41.846z"
                fill="#000000"
                data-color="2"></path>
            <path
                d="M138.633 181.692h-.564l.094-.376c1.316.188 2.163-.282 2.633-1.316l.094-.188.188.188c1.222 1.034 2.538 1.786 4.324.564l.188.282c-1.786 1.222-3.29.47-4.512-.47-.564.846-1.317 1.316-2.445 1.316z"
                fill="#000000"
                data-color="2"></path>
            <path
                d="M150.29 175.017c-.564 0-1.128-.282-1.598-.564-.094-.094-.188-.094-.376-.188-.282.282-.564.47-.846.47-.47 0-.94-.376-1.316-.752l.282-.282c.47.47.752.658 1.034.658.188 0 .47-.188.658-.47l.094-.094.094.094c.188.094.282.188.47.282.94.47 1.786.94 2.82-.376l.282.188c-.564.752-1.128 1.034-1.598 1.034z"
                fill="#000000"
                data-color="2"></path>
            <path
                d="m142.206 162.327-.188-.282c1.034-.94 1.974-1.034 2.82-.376.752-.47 1.692-.846 3.008-.282.752-.376 1.786-.94 2.726-.094l-.188.282c-.752-.658-1.504-.376-2.444.188h-.188c-1.316-.658-2.068-.282-2.82.282l-.094.094-.094-.094c-.846-.658-1.598-.564-2.538.282z"
                fill="#000000"
                data-color="2"></path>
            <path
                d="M150.384 160.729c-.658-.47-1.316-.47-2.256-.188l-.094-.376c.658-.282 1.598-.47 2.538.188l-.188.376z"
                fill="#000000"
                data-color="2"></path>
            <path
                d="m136.66 157.627-.283-.189c.564-1.128 1.598-1.504 3.102-1.128.847-1.034 1.88-1.128 3.009-.376.94-1.41 2.35-1.41 3.666-1.222l-.094.376c-1.504-.282-2.632-.188-3.384 1.128l-.094.188-.188-.094c-1.128-.752-1.974-.658-2.82.282l-.095.094h-.094c-1.786-.47-2.444.188-2.726.94z"
                fill="#000000"
                data-color="2"></path>
            <path
                d="m140.138 155.088-.188-.282c1.128-.658 2.256-.846 3.29-.658.564-.94 1.41-.94 2.256-.752l-.094.376c-.846-.188-1.504-.094-1.974.658l-.094.094h-.094c-.94-.282-1.974-.094-3.102.564z"
                fill="#000000"
                data-color="2"></path>
            <path
                d="M176.987 180.376c-.564 0-1.128-.282-1.598-.658l.188-.282c1.034.658 1.88.846 2.727-.188l.094-.094h.094c.47.094.846 0 1.034-.188.282-.188.376-.658.282-1.316v-.094c.658-1.128 1.034-2.35-.188-3.667l.282-.282c1.316 1.41.846 2.82.282 3.949 0 .752-.094 1.222-.376 1.504-.282.282-.658.376-1.222.282-.658.846-1.128 1.034-1.599 1.034z"
                fill="#000000"
                data-color="2"></path>
            <path
                d="m177.552 167.78-.283-.189c.94-1.316.47-1.786-.094-2.35-.282-.282-.564-.564-.658-.94v-.094l.094-.188c.282-.658.47-1.034-.094-1.504l.188-.282c.752.658.47 1.316.188 1.88v.094c.094.282.376.47.564.752.565.658 1.223 1.316.095 2.82z"
                fill="#000000"
                data-color="2"></path>
            <path
                d="M111.278 174.453a1.298 1.298 0 0 0-.376-.282c-.752-.564-1.504-1.222-1.316-3.102-.564.188-1.128.188-1.504 0-.94-.47-1.41-1.88-1.786-3.29a11.835 11.835 0 0 1-.282-.94l.376-.094c.094.282.188.564.282.94.376 1.316.752 2.632 1.598 3.102.376.188.94.188 1.504-.094l.282-.094v.282c-.282 1.974.47 2.538 1.128 3.102.094.094.282.188.376.282l-.282.188z"
                fill="#000000"
                data-color="2"></path>
            <path
                d="M119.174 177.838h-.376l.094-1.599c-1.974-.94-1.598-2.632-1.034-4.23-1.222-1.128-.658-2.068 0-2.914l.282.188c-.658.846-1.034 1.598 0 2.538l.094.094v.094c-.564 1.598-.94 3.196.94 3.948l.094.094-.094 1.787z"
                fill="#000000"
                data-color="2"></path>
            <path
                d="M125.473 179.624c-.376 0-.846-.188-1.316-.658-.658.47-1.316.47-1.974 0l.188-.282c.564.47 1.034.47 1.598-.094l.094-.094.094.094c.47.47.94.658 1.316.564.47-.094.846-.47 1.222-1.316v-.094h.094c.846-.094 1.692-.376 2.162-1.316l.282.188c-.47 1.034-1.41 1.316-2.35 1.504-.376.846-.846 1.316-1.41 1.41.094.094 0 .094 0 .094z"
                fill="#000000"
                data-color="2"></path>
            <path
                d="m127.353 181.222-.282-.188.846-1.692h.188c1.222.376 2.538.376 3.384-2.162l.094-.188h.188c1.504.282 1.786-.658 2.162-1.787.094-.188.094-.376.188-.564v-.094h.094c2.256-.376 2.538-1.598 2.914-3.008 0-.188.094-.376.094-.564l.376.094c-.094.188-.094.376-.094.564-.282 1.41-.658 2.914-3.102 3.29-.094.188-.094.282-.094.47-.282 1.129-.658 2.35-2.35 2.069-.658 2.068-1.88 2.82-3.666 2.35l-.94 1.41z"
                fill="#000000"
                data-color="2"></path>
        </g>
        <path
            d="M135.286 233.961c-31.4 0-51-13.3-61.9-24.5-14.5-14.9-20.2-32.2-20.7-43.4-5.3-120.1-6.2-127.6-6.3-128 0 .1.2.4.5.5l.2-1.4h176.4l.2 1.4c.3-.1.5-.4.5-.5-.1.5-1.1 8-6.3 128-.5 11.2-6.2 28.5-20.7 43.4-10.9 11.2-30.5 24.5-61.9 24.5zm-87.4-195.4c0 .3.1.7.1 1.3.1 1.8.4 5.8.9 14.1.8 14.6 2.4 46 5.3 112.1.5 11 6.1 27.9 20.2 42.5 10.7 11 30 24.1 60.9 24.1s50.2-13.1 60.9-24.1c14.2-14.6 19.8-31.5 20.2-42.5 2.9-66.1 4.5-97.4 5.3-112.1.5-8.3.7-12.2.9-14.1 0-.5.1-.9.1-1.3h-174.8z"
            fill="#000000"
            data-color="2"></path>
        <g>
            <path
                d="M100.937 83.833 87.12 82.705l-6.11 12.502-6.017-12.502-13.819.94 7.897-11.469-7.709-11.469 13.82 1.128 6.015-12.502 6.017 12.502 13.818-.94-7.896 11.469 7.802 11.469z"
                fill="#225500"
                fill-rule="evenodd"
                clip-rule="evenodd"
                data-color="3"></path>
            <path
                d="M81.008 95.395c-.094 0-.094 0-.188-.094l-5.922-12.408-13.725.94c-.094 0-.094 0-.188-.094v-.188l7.803-11.281-7.709-11.375v-.188c0-.094.094-.094.188-.094l13.725.94 6.016-12.314c0-.094.094-.094.188-.094s.094 0 .188.094l5.923 12.408 13.724-.94c.094 0 .094 0 .188.094v.188L93.417 72.27l7.708 11.375v.188c0 .094-.094.094-.188.094l-13.724-1.034-6.017 12.314-.188.188zm-6.016-12.878c.094 0 .094 0 .188.094l5.828 12.22 5.923-12.126c0-.094.094-.094.188-.094l13.442 1.034-7.52-11.187v-.188l7.614-11.093-13.442.94c-.094 0-.188 0-.188-.094l-5.829-12.22-5.922 12.126c0 .094-.094.094-.188.094L61.643 60.99l7.52 11.187v.188L61.55 83.457l13.443-.94z"
                fill="#000000"
                data-color="2"></path>
            <g>
                <path
                    d="m209.231 83.833-13.819-1.128-6.11 12.502-5.922-12.502-13.819.94 7.897-11.469-7.709-11.469 13.819 1.128 6.11-12.502 5.922 12.502 13.82-.94-7.897 11.469 7.708 11.469z"
                    fill="#225500"
                    fill-rule="evenodd"
                    clip-rule="evenodd"
                    data-color="3"></path>
                <path
                    d="M189.302 95.395c-.094 0-.094 0-.188-.094l-5.922-12.408-13.725.94c-.094 0-.094 0-.188-.094v-.188l7.802-11.281-7.708-11.375v-.188c0-.094.094-.094.188-.094l13.725 1.128 6.016-12.314c0-.094.094-.094.188-.094s.094 0 .188.094l5.922 12.408 13.725-.94c.094 0 .094 0 .188.094v.188l-7.802 11.281 7.708 11.375v.188c0 .094-.094.094-.188.094l-13.725-1.128L189.49 95.3s-.094.094-.188.094zm-5.922-12.878c.094 0 .094 0 .188.094l5.828 12.22 5.922-12.126c0-.094.094-.094.188-.094l13.443 1.034-7.52-11.187v-.188l7.614-11.093-13.443.94c-.094 0-.188 0-.188-.094l-5.828-12.22-5.922 12.126c0 .094-.094.094-.188.094L170.03 60.99l7.52 11.187v.188l-7.614 11.093 13.443-.94z"
                    fill="#000000"
                    data-color="2"></path>
            </g>
        </g>
        <path
            d="M273.1 88.6c0-10.3 7.9-18.1 18.5-18.1s18.5 7.7 18.5 18.1c0 10.4-7.9 18.1-18.5 18.1-10.7 0-18.5-7.7-18.5-18.1zm34.4 0c0-9-6.8-15.7-15.9-15.7-9.1 0-15.9 6.7-15.9 15.7s6.8 15.7 15.9 15.7c9 0 15.9-6.6 15.9-15.7z"
            fill="#ffffff"
            data-color="1"></path>
        <path
            d="M344.8 93.2c0 7.9-5.7 13.5-13.1 13.5-4.8 0-8.8-2.4-10.9-6.5v6.3h-2.4V68.7h2.5V86c2.1-4 6.1-6.3 10.8-6.3 7.4 0 13.1 5.5 13.1 13.5zm-2.6 0c0-6.7-4.6-11.2-10.7-11.2s-10.7 4.5-10.7 11.2c0 6.7 4.6 11.2 10.7 11.2s10.7-4.6 10.7-11.2z"
            fill="#ffffff"
            data-color="1"></path>
        <path
            d="M375.1 93.8h-22.9c.3 6.3 4.9 10.6 11.2 10.6 3.4 0 6.5-1.2 8.5-3.7l1.5 1.7c-2.3 2.9-6 4.3-10 4.3-8 0-13.7-5.6-13.7-13.5s5.4-13.5 12.7-13.5c7.3 0 12.7 5.5 12.7 13.4.1.2 0 .4 0 .7zm-22.8-2h20.4c-.4-5.8-4.5-9.9-10.2-9.9-5.7 0-9.8 4.1-10.2 9.9z"
            fill="#ffffff"
            data-color="1"></path>
        <path
            d="M380.2 93.2c0-7.9 5.7-13.5 13.4-13.5 4.2 0 7.9 1.6 10.1 4.9l-1.9 1.4c-1.9-2.7-4.9-4-8.2-4-6.3 0-10.8 4.5-10.8 11.2s4.6 11.2 10.8 11.2c3.3 0 6.3-1.3 8.2-4l1.9 1.4c-2.2 3.2-5.9 4.9-10.1 4.9-7.8 0-13.4-5.6-13.4-13.5z"
            fill="#ffffff"
            data-color="1"></path>
        <path
            d="m307.4 166.5 9.5 8.5c-4.4 5.7-11.3 8.9-20 8.9-14.3 0-24.8-9.6-24.8-23.3 0-13.7 10.5-23.3 24.8-23.3 8.7 0 15.6 3.2 20 8.9l-9.5 8.5c-2.6-3.3-5.7-5.2-9.7-5.2-6.2 0-10.4 4.3-10.4 11.1s4.2 11.1 10.4 11.1c4 0 7.1-1.9 9.7-5.2zm-16.7-31.9-8.1-10.2h8.9l5.3 4.9 5.3-4.9h8.9l-8.1 10.2h-12.2z"
            fill="#ffffff"
            data-color="1"></path>
        <path
            d="M358.3 171.5v11.3h-37v-44.5h36.2v11.3H336v5.2h18.8v10.8H336v5.9h22.3z"
            fill="#ffffff"
            data-color="1"></path>
        <path
            d="M364 138.3h15v32.9h20.1v11.6H364v-44.5z"
            fill="#ffffff"
            data-color="1"></path>
        <path
            d="M434.3 175.1h-16.9l-3 7.8h-15.3l19.5-44.5h14.8l19.5 44.5h-15.5l-3.1-7.8zm-4.1-10.9-4.3-11.2-4.3 11.2h8.6z"
            fill="#ffffff"
            data-color="1"></path>
        <path
            d="M455.2 138.3h22c14.9 0 25.1 8.5 25.1 22.3s-10.2 22.3-25.1 22.3h-22v-44.6zm21.3 32.8c6.3 0 10.6-3.8 10.6-10.6s-4.3-10.6-10.6-10.6h-6.3V171h6.3z"
            fill="#ffffff"
            data-color="1"></path>
        <path
            d="M551.7 138.3v44.5h-12.3l-16.9-20.2v20.2h-14.6v-44.5h12.3l16.9 20.2v-20.2h14.6z"
            fill="#ffffff"
            data-color="1"></path>
        <path
            d="M589.3 175.1h-16.9l-3 7.8h-15.3l19.5-44.5h14.8l19.5 44.5h-15.5l-3.1-7.8zm-5.5-40.4h-9.5l8.4-10.2h13.7l-12.6 10.2zm1.4 29.5-4.3-11.2-4.3 11.2h8.6z"
            fill="#ffffff"
            data-color="1"></path>
    </g>
</svg>
